<svg width="132" height="209" viewBox="0 0 132 209" fill="none" xmlns="http://www.w3.org/2000/svg">
<path d="M10.9527 107.403C10.8696 107.403 10.8004 107.389 10.7173 107.348L10.0942 107.041C9.92808 106.957 9.81732 106.776 9.80347 106.581C9.6927 102.636 10.925 98.9286 12.1158 95.3463C12.3789 94.5657 12.6281 93.7851 12.8774 93.0046C12.7943 93.0046 12.725 92.9767 12.642 92.9627C12.0189 92.8652 11.3681 92.7676 10.8281 92.4191L10.4819 92.1961C9.37422 91.4991 8.12807 90.7046 7.78191 89.5756C7.40806 88.3211 6.89574 87.6938 5.78803 87.1084C3.30952 85.7842 2.09101 83.4843 2.25717 80.4316C2.28486 79.9856 2.56181 79.6511 2.7972 79.3444C2.88028 79.2329 2.96333 79.1354 3.03256 79.0238C3.12949 78.8845 3.28182 78.7869 3.44798 78.7869C3.44798 78.7869 3.46181 78.7869 3.47566 78.7869C3.64181 78.7869 3.78026 78.8566 3.89103 78.982C3.96027 79.0796 4.05719 79.1772 4.15412 79.2747C4.43105 79.5675 4.74954 79.888 4.79108 80.3341C5.01262 82.7455 6.36954 84.1952 9.08343 84.9061C9.74806 85.0733 10.2189 85.4078 10.4958 85.8957C10.7727 86.3975 10.8143 87.0526 10.5927 87.7635C10.3573 88.5441 10.6204 88.8089 11.465 89.1992C12.185 89.5198 12.7527 89.6871 13.2097 89.6871C13.8881 89.6871 14.5112 89.3944 15.4112 87.9726C17.6267 84.4321 20.1329 81.7419 23.0822 79.7626C26.2668 77.616 28.9254 74.7446 31.4869 71.9568L32.0131 71.3853C33.0377 70.2841 34.2146 69.3224 35.35 68.3885C35.8901 67.9424 36.4439 67.4963 36.9701 67.0503C37.3163 66.7436 37.6624 66.437 37.9947 66.1164C38.6732 65.4752 39.3794 64.8201 40.1686 64.2765C41.3594 63.4401 42.7164 62.4784 44.1979 62.0184L46.1364 61.4051C50.0826 60.1645 54.1673 58.8682 58.2797 58.0597C60.6475 57.5858 62.8075 57.3628 64.8844 57.3628C69.1907 57.3628 73.0261 58.3664 76.6123 60.4433C79.3539 62.0323 82.3724 63.2589 85.294 64.4577C87.2048 65.2383 89.1848 66.0606 91.0818 66.9667C97.2434 69.9078 102.837 73.7967 107.697 78.522C110.328 81.0728 112.433 84.0836 113.942 87.4569C114.219 87.4569 115.451 87.4569 115.784 87.4569C116.282 87.4569 116.767 87.4569 117.252 87.429C117.833 87.4011 118.124 87.3175 118.235 87.2756C118.885 85.8121 120.145 85.589 121.17 85.3939C121.572 85.3242 121.945 85.2545 122.278 85.1151C126.349 83.554 127.872 79.9856 128.827 76.696C128.869 76.5566 128.896 76.3615 128.91 76.1663C128.979 75.5391 129.118 74.3822 130.309 74.3822C130.447 74.3822 130.586 74.3961 130.738 74.4379C131.25 74.5494 131.624 74.7864 131.818 75.1349C132.164 75.7343 131.943 76.4451 131.763 77.0306C131.721 77.1839 131.666 77.3372 131.638 77.4766C130.932 80.5989 129.589 83.2613 127.526 85.5891C126.072 87.2478 124.216 87.9726 122.444 88.5162C121.89 88.6835 121.35 89.0459 120.824 89.3943L120.27 89.7568C119.453 90.3143 118.595 90.8998 117.487 90.8998C117.141 90.8998 116.781 90.844 116.435 90.7325C116.282 90.6768 116.088 90.6628 115.853 90.6628C115.645 90.6628 115.438 90.6767 115.244 90.7046C115.244 90.7046 115.244 90.7046 115.23 90.7046C115.258 91.3876 115.271 92.0428 115.285 92.6979C115.327 94.5518 115.368 96.308 115.576 98.0365C115.645 98.5662 115.798 99.0958 115.964 99.6534C116.296 100.782 116.642 101.953 116.255 103.291C116.116 103.751 116.061 104.239 115.991 104.811C115.95 105.104 115.922 105.396 115.867 105.731C115.839 105.87 115.77 105.996 115.659 106.079C115.576 106.149 115.465 106.177 115.355 106.177C115.327 106.177 115.285 106.177 115.258 106.177L112.308 105.619C112.156 105.591 112.031 105.508 111.962 105.368C111.879 105.243 111.865 105.09 111.907 104.936L112.571 102.804L104.665 105.536C104.665 105.536 104.554 105.563 104.499 105.563C104.291 105.563 104.111 105.438 104.014 105.243L103.765 104.671C103.668 104.434 103.751 104.156 103.973 104.016L105.067 103.319C105.939 102.762 106.811 102.204 107.697 101.675C107.961 101.507 108.251 101.382 108.528 101.242C108.861 101.089 109.165 100.936 109.428 100.755C109.581 100.657 109.747 100.545 109.927 100.434C110.273 100.211 110.882 99.8206 111.062 99.5976C110.882 98.7334 110.439 97.911 109.996 97.0329C109.858 96.782 109.733 96.5171 109.608 96.2662C109.539 96.1408 109.428 96.0014 109.29 95.8481C109.082 95.6111 108.847 95.3323 108.75 94.9699C107.822 91.7082 106.161 88.7253 104.54 85.8399C103.862 84.6133 103.156 83.3449 102.505 82.0625C101.079 79.2329 98.9881 77.1978 95.8173 75.5252C95.8727 81.2122 95.6096 87.889 88.3541 89.3665C88.3125 89.3665 88.2848 89.3665 88.2433 89.3665C88.0633 89.3665 87.8971 89.2829 87.8002 89.1295C87.6894 88.9483 87.6895 88.7113 87.8141 88.5301L88.4233 87.6938C89.0741 86.8017 89.9325 85.6308 90.7772 84.4321C93.048 81.1983 93.6295 77.6996 92.508 74.0337C92.3003 73.3368 92.1065 73.0998 91.9818 73.0161C90.9988 72.375 89.9603 71.7895 88.8525 71.1623C88.7141 71.0787 88.5618 70.995 88.4233 70.9114C88.991 75.6506 86.8725 79.4699 84.8094 83.1776C84.6155 83.5121 84.3109 83.7212 84.034 83.8885C83.9371 83.9582 83.8401 84.0139 83.7432 84.0836C83.6463 84.1533 83.5355 84.1952 83.4247 84.1952C83.314 84.1952 83.2032 84.1533 83.1063 84.0836L82.7324 83.7909C82.5386 83.6376 82.4694 83.3588 82.5801 83.1358C82.6632 82.9685 82.7463 82.7873 82.8294 82.6201C83.0094 82.2298 83.2032 81.8395 83.4386 81.4492C85.7648 77.6996 86.3464 73.9361 85.2248 69.9357C84.7956 68.4024 83.8956 67.5661 82.2894 67.2036C81.5417 67.0364 80.8355 66.7158 80.0878 66.3673C80.0324 66.3394 79.977 66.3116 79.9216 66.2976C80.7524 70.8278 80.5724 75.7482 75.0061 79.1772C74.9231 79.2329 74.8261 79.2608 74.7292 79.2608C74.6046 79.2608 74.48 79.219 74.383 79.1353C74.2169 78.982 74.1615 78.7311 74.2584 78.522C74.5492 77.8808 74.7985 77.2814 75.0477 76.7239C75.5739 75.5112 76.0308 74.4519 76.5985 73.4204C78.0524 70.7859 77.457 68.1654 76.82 65.3777L76.6816 64.7643C76.6816 64.7643 76.6123 64.6807 76.5708 64.6668C75.2277 64.2068 73.8708 63.7607 72.3338 63.2729L71.7384 63.0777C72.8184 69.1272 71.3922 74.1592 67.3768 78.4105C67.2798 78.522 67.1414 78.5778 67.0029 78.5778C66.9199 78.5778 66.8229 78.5499 66.7399 78.5081C66.5322 78.3826 66.4352 78.1317 66.5044 77.9087L66.8368 76.7797C67.1137 75.8597 67.3906 74.9258 67.6676 74.0058C67.806 73.518 67.9722 73.044 68.1245 72.5562C68.4983 71.4132 68.8584 70.326 69.0107 69.2109C69.2461 67.4546 69.1214 65.6007 68.9968 64.1789C68.8999 63.1892 68.5537 62.2414 68.3599 62.116C67.626 61.9208 66.7537 61.8232 65.646 61.8232C65.0506 61.8232 64.4414 61.8511 63.8875 61.879C63.7629 62.0044 63.5137 62.4505 63.3336 62.9802C61.8798 67.3849 60.7859 72.598 63.6521 77.7693C63.7629 77.9784 63.8182 78.1875 63.8736 78.4802C63.9152 78.6335 63.9567 78.8287 64.0121 79.0796C64.0675 79.3165 63.9706 79.5535 63.7629 79.679C63.6798 79.7208 63.5967 79.7487 63.5137 79.7487C63.3752 79.7487 63.2367 79.6929 63.1398 79.5814C60.2043 76.4451 58.972 73.6992 59.1243 70.6466C59.2351 68.5557 59.5397 66.5067 59.8582 64.3462C59.969 63.6074 60.0797 62.8408 60.1905 62.0881L59.152 62.1856C57.3797 62.339 55.552 62.5062 53.7658 62.7432C53.7242 62.785 53.4888 63.1196 53.3504 63.5099C52.1319 66.9946 51.1627 71.1344 53.2535 75.3858C53.8766 76.6403 54.3473 77.9784 54.8181 79.2608C55.0258 79.8323 55.2196 80.3898 55.4412 80.9474C55.5243 81.1565 55.455 81.4074 55.275 81.5468C55.1781 81.6165 55.0673 81.6583 54.9566 81.6583C54.8458 81.6583 54.7489 81.6304 54.6519 81.5607C49.958 78.2293 48.3657 72.2774 49.9303 63.8862C49.5426 64.0813 49.1688 64.2765 48.7949 64.4716C47.4103 65.1825 46.1087 65.8376 44.8902 66.5903C42.5225 68.0539 41.0409 70.1308 40.7225 72.4586C40.3901 74.8421 41.2902 77.3233 43.2425 79.4699C43.6994 79.9717 44.2118 80.4595 44.7656 80.9613C45.0426 81.2122 45.3195 81.4771 45.5964 81.7419C45.7349 81.8813 45.7902 82.0904 45.7348 82.2855C45.6795 82.4807 45.5133 82.62 45.3056 82.6479C45.0564 82.6897 44.7933 82.7037 44.5441 82.7037C40.6809 82.7037 38.1886 78.4802 37.9255 71.5944L36.9009 72.5562C35.3778 73.964 33.9101 75.344 32.4423 76.7378C32.29 76.8772 32.1239 77.0306 31.9577 77.1699C31.4039 77.6578 30.8361 78.1735 30.6423 78.7311C30.0053 80.4595 30.8084 81.9928 33.0239 83.3031C33.4393 83.554 33.8408 83.8049 34.2839 84.0697L34.907 84.46C35.0593 84.5576 35.1562 84.7249 35.1562 84.9061C35.1562 85.0873 35.0731 85.2545 34.9208 85.3521C34.2839 85.7702 33.6193 85.9793 32.9408 85.9793C30.9608 85.9793 29.0776 84.2509 27.6238 81.1007L27.513 81.2401C22.016 88.4047 16.8374 95.1651 17.4467 104.894C17.4467 105.034 17.4051 105.187 17.3082 105.285C17.2113 105.396 17.0728 105.452 16.9344 105.452H12.5728L11.3404 107.306C11.2435 107.459 11.0773 107.543 10.9112 107.543L10.9527 107.403ZM14.4558 102.33C14.5805 101.605 14.6774 100.894 14.7882 100.169C15.0928 98.134 15.3974 96.0293 16.0344 94.0639C16.2697 93.3391 16.5605 92.6143 16.8651 91.9173C15.0928 95.193 14.0543 98.7056 13.1958 101.981L14.442 102.33H14.4558ZM109.622 89.2132L112.405 97.4789C112.322 95.3602 111.118 91.6107 109.442 88.6417L109.636 89.1992L109.622 89.2132Z" fill="#252932"/>
<path d="M74.7565 78.6754C75.6427 76.71 76.2519 75.107 77.0827 73.6016C78.7443 70.5908 77.8997 67.594 77.2212 64.5832C77.1796 64.402 76.9719 64.165 76.7781 64.1092C75.0196 63.5099 73.2334 62.9384 71.0872 62.2414C72.4303 68.4442 71.1564 73.6156 67.0302 77.9924C67.4179 76.6821 67.8195 75.3858 68.1933 74.0755C68.6641 72.4586 69.3149 70.8557 69.5503 69.2109C69.7857 67.5243 69.7026 65.768 69.5364 64.0535C69.4533 63.1614 69.0795 61.6839 68.5533 61.5445C67.0441 61.1403 65.3825 61.196 63.804 61.2936C63.4579 61.3075 63.0563 62.1996 62.8763 62.7572C61.187 67.8727 60.4532 72.9605 63.2363 77.9785C63.3609 78.2015 63.3748 78.4802 63.5548 79.1632C61.0763 76.5148 59.5116 73.8665 59.6916 70.6187C59.8439 67.6219 60.4255 64.6389 60.8409 61.4469C58.5008 61.6699 56.1193 61.8372 53.7515 62.1578C53.4192 62.1996 53.073 62.8408 52.9207 63.2729C51.4946 67.357 50.8161 71.4132 52.8515 75.5531C53.7238 77.3372 54.3192 79.2748 55.0116 81.0729C51.7853 78.7869 48.3376 74.0756 50.7192 62.8547C48.4899 64.0396 46.5237 64.9595 44.6822 66.0886C39.4344 69.3224 38.7143 75.1489 42.9236 79.7626C43.6298 80.5432 44.4329 81.2262 45.3052 82.0625C41.179 82.648 38.5205 77.9645 38.5066 70.3399C36.305 72.3889 34.2281 74.3125 32.165 76.264C31.4588 76.933 30.545 77.6021 30.2404 78.4524C29.4927 80.4875 30.5034 82.2716 32.8435 83.6516C33.4527 84.014 34.0343 84.3903 34.7127 84.8085C32.345 86.3418 29.6865 84.5297 27.8173 79.9578C22.0987 87.4429 16.3524 94.496 16.9894 104.811H12.3508C12.0046 105.327 11.4785 106.107 10.9523 106.902L10.3292 106.595C10.2046 101.716 12.1431 97.2699 13.5554 92.6143C12.697 92.4052 11.7692 92.4191 11.1185 92.001C10.0384 91.304 8.61226 90.5095 8.30764 89.4501C7.8784 88.0423 7.28304 87.3175 6.05071 86.6624C3.64144 85.38 2.64449 83.1776 2.7968 80.4735C2.82449 80.0693 3.25373 79.7069 3.48912 79.3166C3.76605 79.6651 4.25068 79.9996 4.27838 80.3759C4.54146 83.3031 6.36915 84.7249 8.95842 85.4079C10.2184 85.7424 10.3846 86.6763 10.0938 87.6102C9.70614 88.8508 10.4261 89.3108 11.2569 89.6732C13.4585 90.6768 14.5801 90.2865 15.8539 88.2375C17.834 85.0594 20.2432 82.2856 23.3725 80.1808C26.8341 77.8669 29.5896 74.7725 32.4004 71.7338C33.8681 70.1448 35.6681 68.8624 37.3159 67.4406C38.3682 66.5206 39.3374 65.4892 40.4728 64.6947C41.6913 63.8444 42.9652 62.9384 44.3498 62.5063C48.9883 61.0566 53.6269 59.5094 58.3762 58.5615C64.5379 57.3349 70.5472 57.5301 76.3489 60.8754C80.9182 63.5099 86.0552 65.1268 90.846 67.4128C96.9384 70.326 102.435 74.1174 107.323 78.8705C110.12 81.5886 112.183 84.7109 113.596 87.9587C114.953 87.9587 116.116 88.0005 117.265 87.9448C117.75 87.9169 118.539 87.8332 118.663 87.5545C119.397 85.7703 121.114 86.1188 122.444 85.603C126.459 84.0698 128.19 80.7104 129.311 76.8494C129.533 76.0827 129.284 74.647 130.627 74.9397C132.039 75.2464 131.333 76.5009 131.139 77.3512C130.474 80.3062 129.173 82.9407 127.151 85.2267C125.822 86.7321 124.147 87.4429 122.305 88.0005C121.613 88.2096 120.976 88.6556 120.367 89.0599C119.217 89.8126 118.179 90.7186 116.6 90.2029C115.963 89.9938 115.216 90.175 114.676 90.175C114.786 92.9767 114.731 95.5414 115.036 98.0644C115.243 99.737 116.254 101.298 115.728 103.11C115.52 103.849 115.479 104.644 115.326 105.605C114.246 105.396 113.291 105.215 112.377 105.048C112.668 104.114 112.917 103.319 113.166 102.525C113.056 102.385 112.945 102.246 112.834 102.107C110.051 103.068 107.268 104.03 104.485 104.992C104.402 104.797 104.319 104.602 104.235 104.421C105.468 103.64 106.7 102.845 107.946 102.079C108.514 101.73 109.165 101.507 109.705 101.131C110.397 100.657 111.657 99.9601 111.574 99.5558C111.339 98.3013 110.619 97.1305 110.037 95.9596C109.829 95.5275 109.345 95.193 109.22 94.7609C107.877 90.0495 105.108 86.063 102.948 81.7698C101.217 78.3548 98.6969 76.2779 95.263 74.6192C95.3461 81.0868 95.1661 87.3872 88.229 88.795C88.866 87.9169 90.0568 86.3139 91.206 84.6831C93.5322 81.3656 94.1969 77.7415 93.0061 73.8247C92.8676 73.3507 92.6461 72.7653 92.2722 72.5283C90.8876 71.6363 89.4337 70.8556 87.7306 69.8799C88.7552 74.884 86.5675 78.8845 84.3521 82.871C84.1721 83.1916 83.7428 83.3728 83.4243 83.6237C83.2997 83.5261 83.1751 83.4286 83.0505 83.331C83.3274 82.7874 83.5628 82.2159 83.8813 81.7001C86.1798 77.9784 86.9275 74.0337 85.7228 69.7684C85.2382 68.0261 84.1582 67.0643 82.3997 66.674C81.3612 66.451 80.4059 65.8795 79.2151 65.3916C80.2951 70.4654 80.2812 75.2882 74.7427 78.7033L74.7565 78.6754ZM14.8709 102.985C15.4109 100.002 15.6324 97.005 16.5324 94.2312C17.4324 91.4713 19.0109 88.9483 20.2848 86.3139C15.937 90.8022 14.0816 96.4335 12.5724 102.344C13.3893 102.567 14.0678 102.762 14.8709 102.985ZM107.808 85.4497C109.248 89.715 110.868 94.5518 112.46 99.3049C114.066 97.6183 111.089 88.9623 107.808 85.4497Z" fill="#252932"/>
<path d="M92.743 145.708C88.4644 145.708 85.0582 144.843 82.012 142.989C80.4751 142.042 79.1181 140.787 77.9273 139.686C77.5396 139.323 77.1519 138.975 76.7642 138.627C76.5704 138.459 76.4042 138.278 76.2381 138.097C75.8227 138.264 75.435 138.306 75.1442 138.306C74.4934 138.306 73.2472 138.069 72.2642 136.536C70.5887 133.943 68.2764 130.375 69.2595 126.416C69.4395 125.677 69.3426 124.855 69.2318 123.907C69.121 122.931 68.9964 121.816 69.1764 120.631H62.2394C62.2809 120.966 62.364 121.844 62.364 121.844C62.4332 122.416 62.544 123.377 61.9763 124.228C61.3532 125.148 61.2424 126.319 61.104 127.671C60.9378 129.329 60.7578 131.197 59.5808 132.912C59.4562 133.107 59.3593 133.33 59.2485 133.567C58.8193 134.487 58.0993 136.076 56.1608 136.466C56.1331 136.494 56.1193 136.522 56.0916 136.55C51.5361 142.153 45.7622 144.997 38.9497 144.997C37.2189 144.997 35.3912 144.815 33.5358 144.439C30.4203 143.812 27.4849 142.488 25.2695 141.4C20.0355 138.822 18.194 133.832 17.1555 129.775C16.5463 127.35 16.117 124.66 15.8401 121.314C15.6601 119.224 14.7601 117.927 12.8216 117.007C11.7969 116.519 9.40154 115.376 9.20769 112.352C8.93076 108.072 10.1769 106.553 14.317 106.065L16.8093 105.773C21.4894 105.215 26.2941 104.643 31.0988 104.643C32.6635 104.643 34.1312 104.699 35.5851 104.825C40.5698 105.243 44.8345 105.94 48.5868 106.957C52.7962 108.1 56.3408 110.791 59.1101 114.958C61.2424 114.457 63.5133 114.206 66.0195 114.206C67.8056 114.206 69.7164 114.331 72.0149 114.582H72.0426C73.718 112.226 76.0442 110.456 79.5197 108.881C85.2521 106.274 91.0953 104.95 96.883 104.95C99.7631 104.95 102.685 105.271 105.592 105.912C108.292 106.511 111.173 106.762 113.956 107.027C115.382 107.153 116.822 107.292 118.22 107.459C118.387 107.473 118.553 107.487 118.719 107.487C119.66 107.529 121.834 107.626 122.651 109.996C123.344 112.003 122.028 115.655 120.242 116.729C120.09 116.826 119.383 117.216 119.383 117.216C116.6 118.917 115.728 120.199 115.797 122.499C115.88 125.761 115.202 129.301 113.914 132.215C111.449 137.804 107.503 144.355 98.6969 145.317C96.8 145.526 94.7646 145.708 92.743 145.708ZM78.5643 130.653C82.8567 137.553 87.966 140.759 94.6399 140.759C99.7354 140.759 103.239 138.961 105.662 135.086C108.832 130.04 110.162 124.465 109.746 118.025C109.608 115.85 108.085 113.829 106.368 113.537C102.048 112.798 98.5308 112.352 95.2769 112.143C94.7922 112.115 94.3215 112.101 93.8369 112.101C88.7968 112.101 84.1859 113.815 80.1012 117.188C77.9689 118.959 76.5565 120.534 76.335 122.527C77.2904 122.736 77.7335 123.336 77.9273 123.726C78.4258 124.729 78.0381 125.733 77.6366 126.402C77.6366 126.402 77.6366 126.43 77.6504 126.444C77.6781 126.514 77.8304 126.709 77.9273 126.834C78.3427 127.392 79.4781 128.925 78.5781 130.653H78.5643ZM34.9758 111.669C32.8435 111.669 30.4896 111.766 27.5542 111.961C25.5741 112.087 24.3833 112.867 23.5664 114.554C22.9018 115.934 22.1818 117.537 21.9325 119.084C20.6448 127.127 24.9649 137.038 34.1866 139.003C36.402 139.477 38.2851 139.7 39.9744 139.7C43.6437 139.7 46.5929 138.557 48.9884 136.215C50.0545 135.17 50.8576 133.567 51.633 132.033C51.8546 131.573 52.09 131.127 52.3253 130.695C52.3253 130.64 52.3115 130.57 52.2977 130.514C52.2423 130.166 52.1869 129.692 52.2423 129.162C52.4084 127.852 52.6023 126.235 53.9315 125.705C53.6408 125.203 53.5854 124.604 53.7931 124.06C54.0008 123.517 54.43 123.099 54.97 122.917C54.9562 122.736 54.9146 122.527 54.9008 122.416C54.1669 117.453 50.733 113.787 45.9145 112.728C42.6606 112.017 39.0743 111.683 34.9758 111.683V111.669Z" fill="#252932"/>
<path d="M31.113 106.009C32.65 106.009 34.0761 106.065 35.4885 106.191C40.4039 106.609 44.5717 107.292 48.2548 108.282C52.4088 109.397 55.8565 112.184 58.515 116.533C60.7997 115.892 63.2782 115.572 66.0475 115.572C67.7783 115.572 69.6337 115.697 71.8907 115.948C71.946 115.948 72.0014 115.948 72.0568 115.948C72.5137 115.948 72.8738 115.809 72.943 115.725C74.4799 113.411 76.6954 111.669 80.1154 110.121C85.6678 107.599 91.3172 106.316 96.9111 106.316C99.6942 106.316 102.519 106.623 105.33 107.25C108.127 107.863 111.076 108.128 113.914 108.393C115.285 108.518 116.698 108.644 118.096 108.811C118.29 108.839 118.498 108.839 118.691 108.853C119.605 108.895 120.865 108.951 121.364 110.428C121.835 111.822 120.796 114.777 119.55 115.516C119.412 115.599 119.273 115.683 119.121 115.767C118.968 115.85 118.816 115.934 118.678 116.018C115.922 117.704 114.344 119.307 114.427 122.541C114.51 125.594 113.859 128.925 112.668 131.657C110.217 137.233 106.631 143.059 98.5726 143.937C96.7172 144.132 94.7234 144.328 92.7572 144.328C88.7417 144.328 85.557 143.533 82.7462 141.805C81.3339 140.94 80.0877 139.783 78.8831 138.668C78.4815 138.306 78.0938 137.943 77.6923 137.581C77.2908 137.219 76.9723 136.8 76.64 136.354C76.6123 136.327 76.5846 136.285 76.5569 136.257C76.0169 136.787 75.5046 136.926 75.1446 136.926C74.6876 136.926 74.023 136.731 73.4138 135.797C71.7799 133.274 69.7583 130.138 70.5891 126.765C70.8245 125.789 70.7137 124.799 70.5891 123.754C70.4229 122.276 70.2429 120.757 71.0737 119.251H60.6612L60.7028 119.586C60.7997 120.339 60.8828 121.063 60.952 121.774L60.9797 121.997C61.0351 122.471 61.1043 123.029 60.8135 123.447C59.9966 124.646 59.8582 126.054 59.7058 127.545C59.5535 129.106 59.3873 130.709 58.4181 132.131C58.2381 132.396 58.0996 132.689 57.9612 133.023C57.5319 133.943 57.0196 135.086 55.3996 135.17C55.3442 135.239 55.2473 135.365 55.1919 135.448C55.1365 135.532 55.0673 135.616 55.0119 135.685C50.7195 140.954 45.3194 143.617 38.9363 143.617C37.2885 143.617 35.5577 143.435 33.7992 143.087C30.8222 142.488 28.0114 141.219 25.8791 140.16C21.1574 137.832 19.4544 133.204 18.499 129.441C17.9036 127.085 17.502 124.479 17.2251 121.203C17.0035 118.61 15.7989 116.882 13.4173 115.753C12.0188 115.084 10.7173 114.206 10.5927 112.268C10.3573 108.755 11.0911 107.849 14.4835 107.459C15.3143 107.362 16.1451 107.264 16.9897 107.166C21.6006 106.609 26.3775 106.037 31.113 106.037M39.9747 141.094C44.0317 141.094 47.2856 139.825 49.958 137.219C51.1903 136.02 52.0488 134.305 52.8657 132.661C53.1288 132.131 53.3919 131.601 53.6688 131.086C53.738 130.946 53.6965 130.612 53.6688 130.319C53.6273 130.012 53.5857 129.664 53.6273 129.329C53.7934 127.991 53.9457 127.113 54.5688 126.96C55.1642 126.82 55.5381 126.625 55.635 126.388C55.7042 126.207 55.6765 125.817 55.1504 125.008C55.0534 124.869 55.0396 124.688 55.095 124.534C55.1504 124.381 55.275 124.256 55.4411 124.214C56.4935 123.921 56.4519 123.377 56.2858 122.179V122.067C55.4688 116.617 51.6195 112.505 46.2194 111.334C42.8686 110.609 39.1855 110.247 34.99 110.247C32.8161 110.247 30.4207 110.344 27.4714 110.54C24.9929 110.707 23.3729 111.78 22.3344 113.899C21.6282 115.362 20.8529 117.091 20.5898 118.819C19.2051 127.489 23.899 138.18 33.9238 140.327C36.2362 140.815 38.2162 141.066 40.0024 141.066M74.9507 123.879C75.1584 123.865 75.38 123.851 75.5738 123.851C75.7815 123.851 76.4184 123.851 76.6815 124.367C76.9446 124.911 76.5569 125.58 76.1138 126.193C76.1138 126.305 76.183 126.611 76.3907 127.057C76.4877 127.266 76.64 127.475 76.8061 127.698C77.3046 128.367 78.0523 129.371 76.9307 130.584C77 130.737 77.1108 130.974 77.2215 131.155C81.8185 138.668 87.3571 142.181 94.6265 142.181C100.179 142.181 104.153 140.118 106.825 135.867C110.148 130.556 111.561 124.702 111.117 117.969C110.937 115.139 108.944 112.603 106.59 112.198C102.214 111.446 98.6419 111 95.3465 110.791C94.8341 110.763 94.3218 110.735 93.8233 110.735C88.4648 110.735 83.5493 112.561 79.2016 116.143C76.9169 118.039 74.5353 120.339 74.9507 123.907M74.203 132.479L72.7215 128.117C72.9291 129.65 73.483 131.086 74.203 132.479ZM31.113 103.222C26.2252 103.222 21.3651 103.807 16.6712 104.365L16.2281 104.42C15.5497 104.504 14.8574 104.588 14.1789 104.657C9.29111 105.229 7.51874 107.403 7.83721 112.421C8.08645 116.255 11.2158 117.746 12.2404 118.248C13.7358 118.959 14.3312 119.823 14.4696 121.426C14.7604 124.855 15.1897 127.615 15.8266 130.11C16.8374 134.124 18.8589 139.783 24.6606 142.641C26.9452 143.77 29.9776 145.136 33.2592 145.791C35.2116 146.181 37.1224 146.377 38.9363 146.377C46.081 146.377 52.1319 143.449 56.9366 137.693C59.1797 137.01 60.0658 135.072 60.4812 134.166C60.5643 133.985 60.6751 133.762 60.7166 133.678C62.0874 131.671 62.2951 129.524 62.4613 127.796C62.5859 126.569 62.6828 125.608 63.0982 124.994C63.832 123.907 63.8321 122.75 63.7628 122.011H67.6813C67.6813 122.75 67.7644 123.447 67.8337 124.046C67.9306 124.869 68.0136 125.58 67.889 126.068C66.7813 130.612 69.2599 134.473 71.0876 137.288C72.4445 139.379 74.203 139.686 75.1307 139.686C75.3384 139.686 75.5599 139.672 75.8092 139.63C75.8092 139.63 75.823 139.63 75.8369 139.644C76.2246 139.993 76.5984 140.341 76.9861 140.689C78.2323 141.846 79.6308 143.143 81.2924 144.16C84.5463 146.154 88.1879 147.087 92.7433 147.087C94.8341 147.087 96.9111 146.892 98.8496 146.683C108.362 145.652 112.585 138.696 115.188 132.758C116.545 129.65 117.279 125.886 117.182 122.443C117.141 120.799 117.57 119.934 120.104 118.387C120.215 118.318 120.339 118.248 120.464 118.178C120.63 118.081 120.796 117.997 120.962 117.885C123.33 116.464 124.881 112.157 123.981 109.494C122.859 106.219 119.813 106.093 118.802 106.051C118.65 106.051 118.525 106.051 118.415 106.023C116.947 105.842 115.465 105.717 114.15 105.591C111.394 105.34 108.542 105.076 105.911 104.504C102.907 103.849 99.8742 103.514 96.8972 103.514C90.9018 103.514 84.8647 104.88 78.9523 107.571C75.56 109.118 73.1922 110.846 71.4199 113.077C69.3983 112.867 67.6675 112.77 66.0336 112.77C63.7767 112.77 61.6997 112.965 59.7335 113.355C56.8535 109.341 53.2396 106.72 48.961 105.563C45.1256 104.532 40.7916 103.821 35.71 103.389C34.2285 103.264 32.7192 103.208 31.113 103.208V103.222ZM39.9747 138.306C38.3962 138.306 36.5962 138.083 34.4777 137.637C26.0591 135.839 22.1267 126.709 23.3037 119.293C23.5252 117.941 24.1898 116.436 24.8129 115.153C25.4083 113.913 26.156 113.453 27.6514 113.341C30.5453 113.146 32.8715 113.063 34.9762 113.063C38.9778 113.063 42.4532 113.397 45.624 114.08C49.7641 114.972 52.7411 118.067 53.4611 122.179C53.0319 122.541 52.6857 123.015 52.4918 123.559C52.3118 124.06 52.2426 124.604 52.3118 125.12C51.218 126.207 51.0103 127.921 50.8718 128.981C50.8026 129.538 50.8441 130.04 50.8857 130.43C50.7195 130.751 50.5534 131.072 50.4011 131.392C49.6811 132.828 48.9333 134.319 48.0333 135.211C45.8871 137.316 43.3255 138.292 39.9885 138.292L39.9747 138.306ZM77.9415 121.733C78.4123 120.576 79.4646 119.502 80.96 118.262C84.7816 115.098 89.1156 113.495 93.8095 113.495C94.2526 113.495 94.7095 113.509 95.1664 113.536C98.365 113.746 101.84 114.178 106.105 114.916C107.074 115.084 108.224 116.436 108.334 118.122C108.736 124.256 107.476 129.566 104.471 134.347C102.325 137.776 99.1958 139.365 94.6126 139.365C88.5756 139.365 84.0617 136.619 80.0877 130.5C80.4201 129.385 80.3508 127.949 79.2016 126.263C79.6446 125.134 79.617 124.074 79.1323 123.099C78.9662 122.764 78.6061 122.179 77.9277 121.719L77.9415 121.733Z" fill="white"/>
<path d="M46.5241 202.704C46.5241 202.704 46.3857 202.704 46.3164 202.662C45.9703 202.508 45.6102 202.355 45.2641 202.216C41.7748 200.738 38.1747 199.205 36.0424 195.274C34.5608 192.528 32.9408 189.81 31.3762 187.162C30.1854 185.141 28.9392 183.05 27.7761 180.973C24.9653 175.983 22.6668 171.759 20.5344 167.41C19.9529 166.212 19.7867 164.846 19.6344 163.507C19.5791 163.061 19.5236 162.615 19.4682 162.183C19.2744 160.915 19.1221 159.646 18.9559 158.308C18.9144 157.918 18.859 157.514 18.8175 157.109C17.8621 157.416 16.9482 157.569 16.062 157.569C12.1435 157.569 9.58193 154.656 7.10343 151.841C2.63104 146.767 3.29566 140.676 4.19567 136.536C4.62491 134.57 5.3034 132.633 5.98187 130.835C7.26959 127.392 9.87273 124.939 14.1374 123.126C14.2066 123.099 14.2759 123.085 14.3451 123.085C14.539 123.085 14.7189 123.182 14.802 123.363C15.2313 124.158 15.5497 124.883 15.3143 125.622C15.1343 126.151 14.6774 126.583 13.9159 126.932C13.0435 127.35 12.2266 127.977 11.3543 128.646C11.8251 128.632 12.282 128.604 12.7251 128.604C13.5005 128.604 14.0959 128.66 14.6497 128.772C15.6605 128.995 16.6436 130.054 17.059 130.932C18.8729 134.849 19.3298 139.114 19.7729 143.226L19.8837 144.23C20.2714 147.715 20.8252 151.255 21.3514 154.67C21.7806 157.416 22.2237 160.26 22.5837 163.075C23.0129 166.462 24.6884 169.348 26.3222 172.15C26.8069 172.986 27.2915 173.808 27.7345 174.659C29.8254 178.548 32.0823 182.423 34.2562 186.186C35.447 188.249 36.6516 190.312 37.8286 192.375C39.7117 195.692 42.6471 197.923 44.9872 199.498C45.5272 199.86 46.0395 200.278 46.538 200.682C46.7595 200.864 46.9811 201.045 47.2026 201.226C47.4242 201.393 47.4657 201.7 47.3134 201.937L46.9534 202.467C46.8564 202.62 46.6903 202.704 46.5241 202.704ZM16.7959 140.313C16.2559 141.944 15.7298 143.477 15.0928 144.983C13.9436 147.659 14.2343 149.875 16.0066 151.952C16.4082 152.412 16.8236 152.872 17.3498 153.444C17.4744 153.583 17.6129 153.736 17.7652 153.89C17.7652 153.862 17.779 153.848 17.7928 153.82C17.9728 153.402 18.1113 153.081 18.0836 152.83C17.959 151.395 17.779 149.917 17.6128 148.509C17.4882 147.45 17.3498 146.377 17.239 145.317C17.0728 143.672 16.9344 142.042 16.7959 140.327V140.313ZM11.1189 132.452C8.72344 134.055 6.81265 137.442 6.41111 141.08C5.8711 146.014 9.13887 150.363 13.0159 152.914C11.382 150.182 11.1466 147.227 12.3374 144.118C12.9743 142.46 13.5143 140.954 13.9989 139.546C14.7328 137.4 14.7466 135.616 14.0266 133.887L9.81735 138.766C9.72042 138.877 9.56807 138.947 9.42961 138.947C9.36038 138.947 9.29117 138.947 9.23578 138.905C9.02809 138.822 8.90348 138.613 8.90348 138.39C9.0281 135.95 10.0389 134.152 11.1189 132.466V132.452Z" fill="#252932"/>
<path d="M46.5244 202.174C42.7028 200.515 38.7428 199.163 36.4997 195.009C33.8827 190.159 30.9334 185.503 28.2334 180.694C25.7272 176.234 23.2487 171.745 21.0055 167.159C20.2717 165.654 20.244 163.786 19.9809 162.086C19.6901 160.26 19.5101 158.42 19.2471 156.385C13.667 158.503 10.5377 154.935 7.46377 151.45C3.64216 147.115 3.54524 141.93 4.69449 136.619C5.10988 134.71 5.76065 132.828 6.45297 130.988C7.85145 127.266 10.7454 125.106 14.3316 123.586C14.9685 124.799 15.3147 125.677 13.6808 126.43C12.3238 127.071 11.1608 128.158 9.72074 129.19C11.5762 129.19 13.0993 128.967 14.5254 129.274C15.3147 129.441 16.2008 130.347 16.5747 131.141C18.4855 135.295 18.8593 139.77 19.3578 144.272C20.0501 150.572 21.2686 156.817 22.0579 163.117C22.6256 167.605 25.2425 171.104 27.2641 174.882C30.4765 180.875 34.0073 186.702 37.372 192.612C39.1443 195.734 41.789 197.95 44.6967 199.916C45.4583 200.432 46.1506 201.045 46.8706 201.63C46.746 201.812 46.6352 201.979 46.5106 202.16L46.5244 202.174ZM14.3593 154.294C14.1377 153.792 14.0823 153.569 13.9577 153.402C11.95 150.572 11.59 147.533 12.8223 144.3C13.4039 142.78 13.9577 141.247 14.4839 139.714C15.2455 137.484 15.3977 135.281 14.1516 132.939C12.5731 134.765 11.1331 136.424 9.41612 138.417C9.56843 135.379 11.1607 133.427 12.5454 131.197C9.09762 132.243 6.35604 136.661 5.88526 141.038C5.23448 147.032 9.80382 151.98 14.3593 154.308V154.294ZM17.9455 154.865C18.2501 153.959 18.6516 153.36 18.6101 152.788C18.3886 150.266 18.0147 147.77 17.7655 145.261C17.5163 142.836 17.3363 140.397 17.1147 137.776C16.2285 140.285 15.55 142.585 14.6223 144.774C13.4315 147.547 13.6808 150.015 15.6193 152.287C16.2285 153.011 16.8932 153.694 17.9455 154.851V154.865Z" fill="#252932"/>
<path d="M84.574 202.285C84.4078 202.285 84.2555 202.202 84.1448 202.062C84.034 201.909 84.0201 201.7 84.1032 201.533C84.2555 201.226 84.3663 200.961 84.4632 200.724C84.6709 200.236 84.8232 199.86 85.114 199.539C88.894 195.246 92.2864 190.186 95.8034 183.593C96.6203 182.06 97.465 180.527 98.2958 179.035C99.6389 176.624 101.037 174.129 102.27 171.606C105.773 164.455 108.182 156.914 109.414 149.164C109.858 146.349 110.37 143.338 110.951 140.355C111.09 139.686 111.436 139.114 111.782 138.557C111.879 138.403 111.962 138.264 112.045 138.125C112.627 137.121 113.222 136.118 113.804 135.114C114.731 133.539 115.701 131.908 116.615 130.291C117.805 128.172 119.813 127.294 121.945 126.5C122.735 126.207 123.565 125.984 124.369 125.761C124.465 125.733 124.549 125.705 124.632 125.691C123.801 124.897 122.873 124.562 121.613 124.562C120.838 124.562 119.868 124.688 118.678 124.966C118.636 124.966 118.608 124.966 118.567 124.966C118.456 124.966 118.359 124.938 118.276 124.869C118.151 124.785 118.082 124.66 118.055 124.506C117.736 122.137 117.972 121.802 120.242 121.426C120.796 121.342 121.35 121.286 121.862 121.286C125.449 121.286 128.149 123.433 129.672 127.503C132.469 134.988 130.973 141.93 125.241 148.147C123.109 150.461 120.685 151.631 118.055 151.631H117.93C117.376 151.631 116.822 151.631 116.268 151.631C114.718 151.631 113.471 151.673 112.35 151.785C112.184 151.827 111.754 152.301 111.658 152.649C111.45 153.485 111.284 154.364 111.131 155.228C110.882 156.58 110.633 157.974 110.148 159.284C108.002 165.083 105.884 170.742 103.405 176.192C101.564 180.234 99.3066 184.444 96.2603 189.448C94.4049 192.5 92.2587 195.414 90.1679 198.243L89.0048 199.818C87.9525 201.24 86.5678 202.021 84.6432 202.285C84.6155 202.285 84.6017 202.285 84.574 202.285ZM112.627 148.314C113.416 148.593 114.371 148.732 115.396 148.732C118.525 148.732 121.876 147.408 123.344 145.596C126.542 141.665 129.561 136.814 127.678 130.584C127.442 129.803 126.902 128.855 125.725 128.855C125.545 128.855 125.365 128.883 125.172 128.925C124.535 129.064 123.898 129.301 123.219 129.566C123.081 129.622 122.942 129.678 122.804 129.72C124.147 132.061 125.449 134.682 124.064 137.609C123.981 137.79 123.801 137.902 123.593 137.902C123.385 137.902 123.205 137.776 123.122 137.595L120.215 131.058L118.719 132.396C118.802 132.521 118.941 132.675 119.065 132.828C121.045 135.002 121.364 137.26 120.035 139.742C118.83 141.986 117.03 143.77 114.524 145.178C113.25 145.889 112.682 146.837 112.641 148.314H112.627ZM116.725 135.058C114.995 137.302 114.178 139.323 114.095 141.568C114.233 141.428 114.371 141.303 114.51 141.163C115.451 140.271 116.407 139.337 117.196 138.32C117.778 137.567 118.013 137.037 117.958 136.605C117.902 136.173 117.515 135.699 116.725 135.058Z" fill="#252932"/>
<path d="M125.6 125.97C124.008 124.005 122.222 123.628 118.566 124.451C118.276 122.318 118.386 122.276 120.325 121.97C125.102 121.203 127.788 123.977 129.187 127.712C132.025 135.295 130.197 142.028 124.853 147.812C123.08 149.722 120.796 151.158 117.93 151.116C116.046 151.088 114.163 151.088 112.294 151.255C111.865 151.297 111.269 152.008 111.145 152.51C110.591 154.684 110.425 156.998 109.663 159.089C107.572 164.762 105.44 170.449 102.934 175.955C100.871 180.499 98.4061 184.89 95.8168 189.155C93.6429 192.751 91.0675 196.097 88.589 199.484C87.7444 200.641 86.5536 201.477 84.5874 201.742C85.0166 200.864 85.1551 200.278 85.5151 199.86C89.8075 194.995 93.2275 189.531 96.2737 183.802C98.4061 179.788 100.746 175.885 102.74 171.815C106.243 164.664 108.68 157.123 109.94 149.234C110.411 146.293 110.896 143.366 111.477 140.439C111.629 139.7 112.128 139.031 112.516 138.362C114.025 135.741 115.603 133.162 117.085 130.514C118.22 128.493 120.159 127.698 122.139 126.96C123.26 126.541 124.423 126.277 125.614 125.942L125.6 125.97ZM118.123 132.215C118.193 132.438 118.193 132.563 118.248 132.647C118.373 132.828 118.511 133.009 118.663 133.176C120.394 135.072 120.837 137.093 119.55 139.491C118.303 141.818 116.448 143.477 114.246 144.718C112.585 145.652 112.045 146.948 112.086 148.676C115.562 150.098 121.419 148.76 123.731 145.931C127.4 141.414 130.017 136.577 128.162 130.43C127.691 128.883 126.597 128.075 125.047 128.409C124.05 128.618 123.108 129.064 122.028 129.441C123.537 132.033 124.922 134.528 123.579 137.386C122.526 135.03 121.502 132.689 120.38 130.193C119.383 131.072 118.733 131.657 118.11 132.215H118.123ZM113.596 142.794C114.939 141.428 116.434 140.16 117.611 138.64C119.037 136.814 118.733 135.881 116.628 134.333C114.717 136.703 113.332 139.296 113.596 142.794Z" fill="#252932"/>
<path d="M48.9474 37.695C48.7813 37.695 48.6151 37.6113 48.5182 37.4719C48.4213 37.3326 48.2967 37.1932 48.1859 37.0677C47.8674 36.7053 47.5074 36.2872 47.452 35.7714C47.2997 34.4612 47.2582 33.1091 47.2166 31.8267C47.2166 31.4504 47.1889 31.074 47.1751 30.6977C46.9951 26.0421 50.789 22.2089 55.9814 21.7628C55.9953 21.7628 56.0091 21.7628 56.023 21.7628C56.0922 21.7628 56.1476 21.7628 56.203 21.7907C56.5491 21.9161 56.9091 22.0416 57.2553 22.1671C58.0722 22.4458 58.9169 22.7385 59.7061 23.1567C60.3707 23.5191 61.0077 23.9512 61.6031 24.3833C62.1984 24.8015 62.7661 25.2057 63.3754 25.5263C64.1093 25.9166 64.8293 26.1118 65.5493 26.1118C67.4047 26.1118 68.8309 24.7876 69.2601 22.6688C69.3016 22.4737 69.0386 21.9301 68.8586 21.8325C68.6093 21.7071 68.3739 21.6513 68.1939 21.6513C68.0554 21.6513 67.6816 21.6513 67.5016 22.5155C67.3908 23.0034 67.0585 23.4076 66.7677 23.7561C66.657 23.8955 66.5462 24.0209 66.4493 24.1603C66.3524 24.2997 66.1862 24.3833 66.0201 24.3833H65.9923C65.8123 24.3833 65.6462 24.2718 65.5631 24.1045C65.48 23.9512 65.3831 23.7979 65.2862 23.6446C65.037 23.2543 64.7462 22.8082 64.7046 22.2925C64.6216 21.1774 64.857 20.2853 65.4108 19.6302C65.9785 18.9611 66.837 18.5848 67.9585 18.5011C68.1939 18.4872 68.4016 18.4733 68.6093 18.4733C70.7555 18.4733 71.8355 19.4629 72.1125 21.6652C72.4448 24.3136 71.3509 26.5996 68.7616 28.6486C67.8754 29.3595 66.8647 29.708 65.7847 29.708C64.7046 29.708 63.5831 29.3735 62.3646 28.7044C62.1707 28.6068 61.9769 28.4953 61.7831 28.3978C60.7446 27.8402 59.6645 27.2687 58.8615 26.4184C58.0168 25.5124 56.9229 25.3312 56.1614 25.3312C53.3506 25.3312 50.3044 27.6729 50.1382 29.9729C50.0552 31.0183 50.069 32.0915 50.069 33.123C50.069 33.9593 50.069 34.8236 50.0413 35.6739C50.0275 36.1338 49.8198 36.5659 49.6259 36.9283C49.5567 37.0817 49.4736 37.2211 49.4182 37.3744C49.349 37.5556 49.1828 37.681 48.989 37.695C48.9751 37.695 48.9475 37.695 48.9336 37.695H48.9474Z" fill="#252932"/>
<path d="M56.0365 22.2785C57.1857 22.7106 58.4043 23.0452 59.4843 23.6167C60.7581 24.2997 61.8658 25.3033 63.1397 25.9863C66.1167 27.5892 69.1075 26.1396 69.786 22.7664C69.8691 22.3482 69.4814 21.5398 69.1075 21.3585C68.1244 20.8986 67.2937 21.0658 67.0167 22.404C66.906 22.9336 66.3798 23.3658 66.0475 23.8536C65.7705 23.3239 65.2859 22.7943 65.2444 22.2507C65.0921 20.2713 66.089 19.1702 68.0137 19.0308C70.3537 18.8635 71.3368 19.6022 71.6137 21.7488C71.9737 24.6063 70.4783 26.6414 68.4567 28.2583C66.6151 29.708 64.552 29.3177 62.6274 28.2583C61.4505 27.6171 60.1489 27.0177 59.2627 26.0699C56.355 22.9476 49.9026 26.1814 49.6257 29.9449C49.4872 31.8406 49.6256 33.7502 49.5425 35.6599C49.5148 36.1756 49.1687 36.6774 48.961 37.1792C48.6148 36.6913 48.0333 36.2314 47.9779 35.7156C47.7841 34.043 47.7702 32.3564 47.7148 30.6698C47.5487 26.2511 51.2595 22.6827 56.0365 22.2785Z" fill="#252932"/>
<path d="M35.2392 61.9905C35.2392 61.9905 35.1561 61.9905 35.1146 61.9766C34.9761 61.9487 34.8238 61.9208 34.6715 61.9069C34.2423 61.8511 33.7576 61.7814 33.4115 61.4608C31.0022 59.2306 29.6176 56.5404 29.1883 53.2369C28.6068 48.7346 30.1437 45.6402 33.8961 43.7863C38.3408 41.5979 40.667 37.472 42.3701 33.7363L42.467 33.5412C42.6055 33.2346 42.827 32.7746 42.744 32.5933C42.7163 32.5376 42.6609 32.4958 42.564 32.44C42.4116 32.5934 42.1762 32.9 42.0239 33.0952C41.8716 33.3043 41.7055 33.4994 41.567 33.6527C41.3732 33.8757 41.1793 34.1127 40.9993 34.3497L40.7362 34.6703C40.6393 34.7957 40.487 34.8654 40.3347 34.8654C40.3347 34.8654 40.3347 34.8654 40.3208 34.8654C40.1547 34.8654 40.0024 34.7818 39.9193 34.6424C39.8501 34.5309 39.7531 34.4333 39.6701 34.3357C39.4208 34.0569 39.1439 33.7224 39.0608 33.3042C38.8254 32.1752 39.0608 31.0601 39.7254 30.2377C40.3624 29.4432 41.3039 28.9971 42.3701 28.9971C43.4224 28.9971 44.3501 29.4013 44.9455 30.1122C45.5132 30.7952 45.7209 31.7013 45.5548 32.6631C44.5717 37.9877 41.6639 42.4203 36.9146 45.8632C36.4023 46.2256 35.8484 46.5183 35.3223 46.7971C34.9761 46.9783 34.6161 47.1734 34.2838 47.3686C31.7084 48.9576 31.0714 52.2333 32.7191 55.5228C33.093 56.2755 33.6469 56.9586 34.2423 57.6694C34.4776 57.9622 34.713 58.2549 34.9346 58.5476C34.99 58.6173 35.1007 58.7149 35.1977 58.7985C35.433 58.9936 35.7238 59.2445 35.793 59.6209C35.89 60.0809 35.8346 60.5409 35.793 60.973C35.7792 61.1402 35.7654 61.2936 35.7515 61.4608C35.7515 61.6142 35.6684 61.7675 35.5438 61.8511C35.4469 61.9208 35.35 61.9487 35.2392 61.9487V61.9905Z" fill="#252932"/>
<path d="M42.3843 29.5129C44.1428 29.5129 45.3751 30.8092 45.0428 32.5655C44.032 38.0295 41.0412 42.2251 36.6103 45.445C35.8072 46.0305 34.8657 46.4208 34.0072 46.9365C31.2102 48.651 30.4625 52.1915 32.2487 55.7738C32.8164 56.9028 33.7442 57.8646 34.5196 58.8821C34.7549 59.1888 35.2257 59.4257 35.2811 59.7463C35.3919 60.29 35.2672 60.8893 35.2396 61.4608C34.7411 61.3354 34.0903 61.3772 33.758 61.0706C31.4595 58.9379 30.1164 56.3313 29.701 53.1532C29.1748 49.111 30.3933 46.0862 34.118 44.2463C38.4935 42.0858 40.9027 38.2107 42.8412 33.9454C43.1735 33.2206 43.7551 32.2449 42.5505 31.8686C42.2735 31.7849 41.6366 32.7885 41.1797 33.3043C40.8889 33.6388 40.6119 34.0012 40.335 34.3357C40.0719 33.9594 39.6427 33.6109 39.5596 33.1928C39.1442 31.1856 40.4458 29.5268 42.3704 29.5129H42.3843Z" fill="#252932"/>
<path d="M126.39 57.6974C126.39 57.6974 126.307 57.6974 126.266 57.6834C126.086 57.6416 125.933 57.4883 125.892 57.3071C125.836 57.1119 125.767 56.9168 125.698 56.7077C125.504 56.192 125.296 55.6205 125.421 55.049L125.476 54.812C125.947 52.6515 126.404 50.6164 125.642 48.5535C125.061 46.9644 124.396 46.6438 123.524 46.6438C123.261 46.6438 122.956 46.6717 122.61 46.7414C122.416 46.7832 122.222 46.7972 122.056 46.7972C121.613 46.7972 121.253 46.6578 121.004 46.393C120.727 46.1002 120.589 45.6542 120.616 45.0966C120.644 44.3857 120.685 43.7864 120.796 43.187C121.392 39.758 120.395 36.6357 117.833 33.9176C116.975 33.0116 116.268 32.6213 115.493 32.6213C115.078 32.6213 114.635 32.7328 114.15 32.9419C112.627 33.611 110.91 33.8061 109.262 33.9873C108.944 34.0152 108.639 34.057 108.334 34.0988C108.279 34.0988 108.21 34.0988 108.154 34.0988C107.393 34.0988 106.618 33.5413 106.216 33.2207C105.621 32.7328 105.953 31.4923 105.981 31.4365C106.133 30.879 106.922 30.6559 107.213 30.6281C107.85 30.5444 108.514 30.5165 109.165 30.4887C110.453 30.4329 111.671 30.3772 112.71 29.9311C113.693 29.5269 114.621 29.3178 115.493 29.3178C118.29 29.3178 120.104 31.4783 121.225 33.0952C123.039 35.7018 123.815 38.7405 123.732 42.8943C126.57 43.5912 128.356 45.7239 128.647 48.8183C128.841 50.951 128.592 53.1115 128.343 55.2163L128.273 55.7878C128.204 56.3593 127.733 56.7635 127.276 57.1398C127.11 57.2792 126.958 57.4047 126.819 57.5441C126.723 57.6556 126.584 57.7113 126.446 57.7113L126.39 57.6974Z" fill="#252932"/>
<path d="M123.15 43.2984C125.878 43.8142 127.789 45.7377 128.079 48.8461C128.287 51.1042 127.969 53.432 127.706 55.704C127.65 56.2337 126.847 56.6797 126.39 57.1676C126.21 56.4985 125.781 55.7598 125.919 55.1604C126.418 52.8884 126.958 50.6581 126.113 48.3722C125.393 46.4207 124.41 45.8492 122.486 46.2395C121.572 46.4207 121.059 46.1141 121.101 45.1244C121.129 44.5111 121.156 43.8839 121.267 43.2845C121.932 39.4931 120.713 36.2732 118.165 33.5551C117.044 32.3703 115.825 31.5898 113.887 32.454C112.17 33.2206 110.135 33.3321 108.21 33.5691C107.656 33.6388 106.964 33.2066 106.493 32.8164C106.271 32.6352 106.313 31.9661 106.424 31.5758C106.479 31.3667 106.936 31.1716 107.227 31.1437C109.11 30.9068 111.173 31.1158 112.862 30.405C116.504 28.8856 118.789 30.5443 120.755 33.3879C122.804 36.329 123.275 39.7022 123.15 43.3123V43.2984Z" fill="#252932"/>
<path d="M108.14 79.0099C108.03 79.0099 107.905 78.968 107.808 78.8983C107.656 78.7729 107.587 78.5638 107.628 78.3687C107.697 78.1039 107.753 77.839 107.794 77.5602C107.919 76.8911 108.057 76.1942 108.376 75.567C108.736 74.8561 109.414 74.1452 110.204 73.6852C110.55 73.4901 111.45 73.0161 112.377 73.0161C112.502 73.0161 112.627 73.0161 112.751 73.044C113.693 73.1974 114.621 73.4204 115.521 73.6573C116.476 73.8943 117.459 74.1452 118.428 74.2846C118.871 74.3403 119.287 74.3821 119.674 74.3821C120.464 74.3821 121.101 74.2567 121.544 74.0058C123.51 72.9046 125.282 71.4689 126.916 70.089C127.165 69.8799 127.304 69.6429 127.276 69.4617C127.235 69.2666 126.999 69.0715 126.611 68.9181C126.362 68.8206 126.113 68.723 125.864 68.6115C125.49 68.4581 125.144 68.3048 124.784 68.2072C124.05 67.9981 123.496 67.8588 123.122 67.8588C122.665 67.8588 122.485 68.0121 122.015 69.8799C121.904 70.312 121.641 70.6465 121.405 70.9532C121.308 71.0786 121.225 71.1902 121.142 71.3156C121.045 71.4689 120.879 71.5526 120.713 71.5526C120.533 71.5526 120.367 71.455 120.27 71.3017C120.187 71.1623 120.09 71.0368 119.979 70.8974C119.716 70.5489 119.411 70.1447 119.356 69.6569C119.176 68.0818 119.508 66.7576 120.325 65.8237C121.045 65.0013 122.098 64.5692 123.344 64.5692C123.884 64.5692 124.465 64.6528 125.061 64.8201C125.85 65.0431 126.625 65.2522 127.345 65.6007C129.048 66.3952 130.032 67.3291 130.35 68.4303C130.641 69.4896 130.322 70.6883 129.381 72.1101C127.331 75.1767 124.175 77.1421 119.965 77.9645C119.938 77.9645 119.896 77.9645 119.868 77.9645C119.841 77.9645 119.799 77.9645 119.771 77.9645C119.148 77.839 118.525 77.7275 117.916 77.616C116.504 77.3651 115.05 77.1002 113.651 76.696C113.18 76.5566 112.82 76.5008 112.502 76.5008C111.879 76.5008 111.436 76.7657 111.048 77.379C110.882 77.6438 110.702 77.8111 110.508 77.9226C109.982 78.1875 109.47 78.4523 108.944 78.7032L108.376 78.982C108.307 79.0238 108.223 79.0377 108.154 79.0377L108.14 79.0099Z" fill="#252932"/>
<path d="M119.882 77.4348C117.805 77.0166 115.77 76.7518 113.817 76.1803C112.461 75.79 111.436 75.8318 110.619 77.0723C110.536 77.2117 110.411 77.3651 110.273 77.4348C109.567 77.7972 108.86 78.1317 108.154 78.4802C108.376 77.5741 108.459 76.5984 108.86 75.79C109.193 75.1209 109.844 74.5076 110.494 74.1312C111.131 73.7549 112.004 73.4482 112.71 73.5597C114.621 73.8525 116.476 74.5215 118.387 74.7864C119.508 74.9397 120.893 74.9676 121.835 74.4379C123.787 73.3367 125.573 71.9149 127.29 70.4653C128.093 69.7823 128.052 68.8623 126.833 68.4023C126.21 68.1654 125.601 67.8587 124.964 67.6775C122.444 66.9527 122.195 67.1339 121.544 69.7265C121.433 70.1865 121.018 70.5768 120.741 71.0089C120.45 70.535 119.965 70.0889 119.896 69.5871C119.508 66.2418 121.696 64.4158 124.95 65.3218C125.698 65.5309 126.459 65.74 127.152 66.0606C130.087 67.4406 130.752 69.1272 128.965 71.8034C126.819 75.0094 123.593 76.7099 119.882 77.4348Z" fill="#252932"/>
<path d="M35.2254 34.7261C35.0731 34.7261 34.3254 34.6982 34.0207 34.28C33.4254 33.4437 32.8438 32.5237 32.5669 31.534C32.3453 30.7395 32.2899 29.9032 32.2345 29.0947C32.2069 28.7602 32.193 28.4257 32.1515 28.0911C31.9992 26.2233 32.7192 24.6343 34.3808 23.0731C34.7408 22.7386 35.1146 22.4041 35.4746 22.0835C36.4993 21.1635 37.5654 20.2156 38.3547 19.1423C38.867 18.4315 39.1024 17.0794 38.8531 16.2431C38.5485 15.2673 37.7178 14.654 36.6793 14.654C36.4993 14.654 36.3054 14.668 36.1116 14.7098C35.1423 14.9049 33.9515 15.1419 33.0515 15.6716C32.8715 15.7831 32.8023 15.9225 32.8161 16.02C32.83 16.1455 32.9961 16.2431 33.2315 16.2988L33.4669 16.3406C34.0623 16.4661 34.7546 16.6055 35.0454 17.1769C35.2254 17.5254 35.2115 17.9576 35.0038 18.4733C34.6715 19.2539 34.0623 19.672 33.2592 19.672C32.7884 19.672 32.2623 19.5187 31.6946 19.2399C30.753 18.7521 30.1299 17.7624 29.9638 16.5218C29.7838 15.0443 30.2961 13.5807 31.3069 12.6886C32.1792 11.922 33.8269 11.462 35.7239 11.462C37.6208 11.462 39.1855 11.922 40.0163 12.6747C42.5086 15.0025 42.7994 18.9472 40.6532 21.4841C39.6285 22.6968 38.4516 23.784 37.3162 24.8294C36.9839 25.1361 36.6377 25.4427 36.3054 25.7633C34.6577 27.3105 34.4084 29.7777 35.71 31.6316C35.7654 31.7013 35.8208 31.771 35.8762 31.8407C36.07 32.0637 36.3054 32.3425 36.3469 32.7049C36.3885 33.1231 36.4023 33.8897 36.0146 34.4054C35.8623 34.6145 35.5992 34.7121 35.2254 34.7121V34.7261Z" fill="#252932"/>
<path d="M32.6779 28.0633C32.5256 26.1397 33.4118 24.718 34.741 23.4774C36.1257 22.1811 37.6765 20.9823 38.7842 19.463C39.3934 18.6267 39.6565 17.0934 39.3519 16.1037C38.9365 14.7238 37.6072 13.8874 36.0149 14.222C34.9072 14.445 33.7441 14.6959 32.7887 15.2535C32.0548 15.6856 32.0825 16.6195 33.121 16.8564C34.0072 17.0516 35.0041 17.1352 34.5195 18.306C34.021 19.4908 32.8717 19.2957 31.9302 18.8079C30.0748 17.86 29.9502 14.6123 31.6671 13.1208C33.3287 11.6572 38.1057 11.6433 39.6704 13.0929C41.9135 15.1837 42.2735 18.8079 40.2657 21.1775C38.978 22.7108 37.4272 24.035 35.9595 25.401C34.1318 27.1294 33.8272 29.8753 35.2949 31.9522C35.4887 32.231 35.8072 32.4819 35.8487 32.7746C35.8903 33.2207 35.8487 33.7782 35.6133 34.1128C35.4887 34.2801 34.6164 34.2103 34.4641 33.9734C33.8964 33.1789 33.3425 32.3146 33.0795 31.3947C32.7748 30.3214 32.8025 29.1645 32.6918 28.0494L32.6779 28.0633Z" fill="#252932"/>
<path d="M13.4037 46.8947C13.4037 46.8947 13.3206 46.8947 13.2791 46.8807C13.1545 46.8528 13.0298 46.8389 12.8914 46.825C12.476 46.7692 12.0052 46.7135 11.7144 46.365C10.2052 44.5251 9.56822 40.7198 10.2605 37.6671C10.7867 35.3672 11.9775 33.7364 13.7083 32.9558C14.733 32.4819 15.8822 32.3843 16.9899 32.2728C17.3638 32.231 17.7515 32.2031 18.1115 32.1473C18.4438 31.5062 18.7622 30.851 19.0946 30.1959C19.953 28.4675 20.8392 26.6694 21.8915 24.9688C23.7192 22.0277 26.5162 20.4108 29.9778 20.3271C30.6009 20.3271 31.5009 20.9544 31.6117 21.5956C31.6809 21.9998 31.4455 22.4877 31.2101 22.8083C30.9609 23.1428 30.6978 23.3379 30.4209 23.3658C25.8654 23.9652 23.6777 27.0596 21.7808 31.534C21.5731 32.0219 21.4207 32.5237 21.2546 33.0534C21.1023 33.5412 20.95 34.057 20.7423 34.5448C20.5207 35.0885 20.1192 36.0781 18.9561 36.0781C18.7345 36.0781 18.513 36.0502 18.2638 35.9805C17.7514 35.8412 17.253 35.7715 16.7684 35.7715C15.4668 35.7715 14.3452 36.2872 13.6114 37.2211C12.7391 38.3223 12.476 39.8695 12.8637 41.57C13.0021 42.1554 13.2514 42.713 13.5006 43.3124C13.7083 43.8002 13.9299 44.3021 14.096 44.8178C14.2206 45.236 14.096 45.6681 14.0129 46.0444C13.9714 46.1838 13.9437 46.3093 13.916 46.4347C13.8883 46.5741 13.8052 46.6995 13.6945 46.7832C13.6114 46.8389 13.5145 46.8668 13.4037 46.8668V46.8947Z" fill="#252932"/>
<path d="M18.4572 32.6212C19.6757 30.2516 20.8388 27.645 22.3342 25.2336C24.0512 22.4597 26.682 20.9265 29.9913 20.8428C30.379 20.8428 31.0298 21.3307 31.099 21.6792C31.1544 22.0276 30.6698 22.8082 30.3651 22.85C25.3112 23.5052 23.0819 27.1711 21.3235 31.3388C20.9081 32.3145 20.6865 33.3739 20.285 34.3636C19.9665 35.1581 19.6065 35.8132 18.4157 35.4926C14.3587 34.3775 11.3956 37.4441 12.3786 41.7094C12.6417 42.8384 13.2787 43.8699 13.6249 44.999C13.7495 45.4032 13.5002 45.905 13.431 46.3789C12.9879 46.2674 12.3787 46.3092 12.1433 46.0304C9.95555 43.382 9.48477 35.4647 13.9572 33.4436C15.3418 32.8164 17.0172 32.8861 18.4849 32.6352L18.4572 32.6212Z" fill="#252932"/>
<path d="M76.7505 18.9054C76.0859 18.9054 75.6151 18.3757 75.1997 17.9018L75.0613 17.7484C72.1397 14.5146 70.9627 6.24884 75.352 1.91385C76.1689 1.10539 77.152 0.701172 78.2736 0.701172C78.7167 0.701172 79.1875 0.770844 79.6859 0.896294C83.9645 2.03928 85.1553 3.39134 85.446 7.50332C85.626 10.1517 83.826 13.1904 81.4998 14.1382C81.2921 14.2219 81.0567 14.2637 80.7936 14.2637C80.2121 14.2637 79.5752 14.0686 79.1736 13.748C78.5644 13.274 78.3151 12.368 78.1905 11.7268C78.149 11.5317 78.2044 11.3505 78.3567 11.1553C78.5644 10.8905 79.1875 10.4166 79.6444 10.4166C79.6998 10.4166 79.8106 10.4305 79.866 10.4444C80.129 10.5281 80.3783 10.5699 80.5859 10.5699C81.3475 10.5699 81.6937 9.98445 82.1921 9.0366C82.3444 8.74389 82.4829 8.46513 82.649 8.22817C83.2998 7.25244 82.7737 6.19309 82.0121 5.6216C80.5859 4.56224 79.4644 4.0465 78.5782 4.0465C77.8167 4.0465 76.6674 4.39495 75.6705 7.37787C74.6459 10.4444 75.2274 13.2322 77.429 15.6576C77.8997 16.1873 78.3844 17.7066 77.8443 18.3199C77.512 18.6963 77.1382 18.8914 76.7505 18.8914V18.9054Z" fill="#252932"/>
<path d="M84.9204 7.51727C85.0866 9.90082 83.4804 12.7444 81.3065 13.6365C80.808 13.8455 79.9357 13.6643 79.4926 13.3298C79.0495 12.9813 78.828 12.2286 78.7034 11.6153C78.6757 11.462 79.4511 10.8626 79.7003 10.9462C81.9296 11.685 82.3173 9.67781 83.0788 8.53483C83.8265 7.39184 83.4111 6.02582 82.3173 5.21736C78.7726 2.56897 76.6264 2.90351 75.1725 7.22457C74.1064 10.4166 74.6879 13.4274 77.0418 16.034C77.4433 16.48 77.7203 17.6787 77.4434 17.9854C76.6403 18.8914 76.0172 18.0272 75.4356 17.386C72.8463 14.5007 71.4063 6.51366 75.7126 2.27623C76.6957 1.30051 77.9695 0.965999 79.548 1.38417C83.5219 2.44352 84.6435 3.55862 84.9204 7.51727Z" fill="#252932"/>
<path d="M67.5426 46.3371C64.1641 46.3371 62.0734 44.9154 60.5641 41.5979C60.4395 41.347 60.2456 41.0961 60.0241 40.8312C59.7748 40.5385 59.5256 40.2319 59.3456 39.8694C59.1518 39.4513 59.1241 38.9913 59.0964 38.5871C59.0964 38.4338 59.0825 38.2665 59.0548 38.1132C59.041 37.9598 59.0825 37.8204 59.1795 37.7089C59.2764 37.5974 59.4148 37.5277 59.5672 37.5277C59.7333 37.5277 59.9271 37.4998 60.1071 37.472C60.3564 37.4441 60.6056 37.4023 60.8272 37.4023C61.1872 37.4023 61.4641 37.4859 61.6856 37.6532C62.2534 38.0992 62.5441 38.838 62.8072 39.4931L62.9041 39.744C63.7903 41.9463 65.438 43.1033 67.695 43.1033C67.7919 43.1033 67.8888 43.1033 67.9857 43.1033C68.7473 43.0754 69.8412 42.1554 70.3812 41.3051C71.295 39.8973 72.1812 39.0331 73.7735 39.0331C74.1889 39.0331 74.6459 39.0889 75.1859 39.2143C75.7813 39.3537 76.3905 39.4234 76.9998 39.4234C78.509 39.4234 80.0183 38.9913 81.3614 38.1689C81.9152 37.8344 82.3029 37.1096 82.7183 36.3569C82.9537 35.9387 83.1891 35.5066 83.466 35.1163C83.7152 34.7678 84.0199 34.4612 84.3107 34.1824C84.4353 34.0569 84.5599 33.9454 84.6707 33.82C84.7676 33.7085 84.9061 33.6527 85.0445 33.6527C85.0722 33.6527 85.1138 33.6527 85.1414 33.6527C85.3215 33.6945 85.4599 33.806 85.5291 33.9872C85.5984 34.1684 85.6953 34.3497 85.7784 34.5309C86.0276 35.0048 86.2907 35.5484 86.2076 36.1199C85.7091 39.4513 83.203 41.8766 79.8244 42.3088C79.0352 42.4063 78.2459 42.476 77.3459 42.5457C76.9028 42.5875 76.4182 42.6294 75.892 42.6712C75.8782 42.6712 75.8643 42.6712 75.8505 42.6712C75.7674 42.6712 75.6982 42.6572 75.629 42.6154C75.1859 42.4063 74.7843 42.3088 74.4105 42.3088C73.4412 42.3088 72.6243 43.0475 71.8766 44.5669C71.3504 45.6402 69.6335 46.2535 68.6504 46.3232C68.2627 46.351 67.8888 46.365 67.5426 46.365V46.3371Z" fill="#252932"/>
<path d="M75.8507 42.1136C73.9122 41.1936 72.4999 42.0579 71.4199 44.302C71.0322 45.0826 69.6198 45.6959 68.6229 45.7656C64.9121 46.0444 62.6967 44.999 61.0351 41.3749C60.7443 40.7476 60.1212 40.2737 59.8166 39.6464C59.5951 39.1865 59.6505 38.5871 59.5674 38.0434C60.1766 38.0295 60.9797 37.7647 61.3674 38.0574C61.8936 38.4616 62.1428 39.2561 62.4197 39.9252C63.4444 42.4621 65.4521 43.7166 67.9998 43.6051C68.9829 43.5633 70.2014 42.5039 70.8106 41.57C71.9737 39.7858 72.8876 39.2143 75.0753 39.7022C77.4015 40.2318 79.6862 39.7719 81.6247 38.5871C82.6355 37.9738 83.1201 36.4684 83.8817 35.3951C84.214 34.9351 84.657 34.5587 85.0447 34.1406C85.2801 34.7678 85.7925 35.4369 85.7094 36.0084C85.2386 39.1167 82.857 41.3609 79.7831 41.7512C78.62 41.9045 77.4431 41.9742 75.8646 42.1136H75.8507Z" fill="#252932"/>
<path d="M67.986 208.753C67.1967 208.753 66.3798 208.697 65.5629 208.586C61.5197 208.042 57.6427 207.136 54.375 206.314C53.198 206.021 52.1042 205.436 51.038 204.878C50.5672 204.627 50.0965 204.376 49.6257 204.153C49.4041 204.042 49.2795 203.791 49.3349 203.554L49.4595 203.052C49.5149 202.815 49.7364 202.662 49.958 202.662C49.9857 202.662 50.0272 202.662 50.0549 202.662C55.2335 203.651 60.772 204.571 66.269 204.571C71.2814 204.571 75.7538 203.805 79.9354 202.244C79.9908 202.216 80.06 202.216 80.1154 202.216C80.1985 202.216 80.2816 202.23 80.3508 202.271C80.4754 202.341 80.5723 202.453 80.6139 202.592C80.6416 202.718 80.6831 202.801 80.7108 202.885C80.78 203.08 80.8908 203.414 80.6001 203.665C76.6677 207.039 72.4168 208.753 67.9722 208.753H67.986Z" fill="#252932"/>
<path d="M49.9713 203.178C60.0654 205.115 70.1594 206.481 80.1426 202.745C80.2395 203.08 80.3226 203.233 80.2811 203.261C76.0579 206.899 71.1979 208.823 65.6316 208.07C61.8792 207.568 58.1684 206.732 54.4991 205.798C52.8791 205.394 51.3975 204.39 49.8467 203.665C49.8882 203.498 49.9298 203.331 49.9713 203.178Z" fill="#252932"/>
<path d="M24.6881 72.361C23.8158 72.361 22.8742 72.0404 21.8911 71.4271C19.4126 69.866 16.6988 67.5242 17.6403 63.1196C17.8203 62.2553 18.0557 60.959 17.9311 59.7742C17.8342 58.91 17.4188 58.004 17.0311 57.7949C16.9757 57.767 16.8788 57.7531 16.768 57.7531C16.3941 57.7531 15.8403 57.9343 15.3695 58.0876C15.1895 58.1433 15.0233 58.1991 14.8572 58.2548C14.5803 58.3385 14.2479 58.7288 14.0679 58.9379C13.8325 59.2167 13.611 59.5233 13.3895 59.8439C13.7356 60.0112 14.0818 60.1924 14.4003 60.4433C15.0926 60.9869 15.4249 61.4608 15.3972 61.9208C15.3695 62.5202 14.6495 63.4123 14.0403 63.4123C12.8633 63.4123 11.7279 63.3007 11.3541 62.6317C10.8971 61.8232 10.1633 60.2481 10.3571 58.7706C10.634 56.7216 14.3449 54.2544 16.4634 54.2544C16.4634 54.2544 16.5326 54.2544 16.5465 54.2544C18.5957 54.3102 20.1188 55.6483 20.5065 57.7252C20.6173 58.2967 20.6588 58.8682 20.7004 59.37C20.7142 59.593 20.7419 59.8021 20.7558 59.9972C20.7558 60.0251 20.7558 60.053 20.7558 60.0948L20.6727 61.2517C20.6173 62.0463 20.5619 62.8129 20.5065 63.5795C20.2988 66.1164 21.9327 68.3327 24.3835 68.8484C24.3835 68.8484 24.3973 68.8484 24.4112 68.8484C24.6189 68.8484 24.8127 68.7787 25.0204 68.723C25.242 68.6533 25.4912 68.5696 25.7543 68.5418C26.0866 68.4999 26.4189 68.4999 26.6958 68.4999H27.5128C27.679 68.4999 27.8451 68.5836 27.9421 68.723C28.039 68.8624 28.0667 69.0436 28.0113 69.2108C27.942 69.4199 27.8866 69.6429 27.8313 69.866C27.6789 70.4793 27.5266 71.1065 27.0559 71.4968C26.3635 72.0822 25.5743 72.375 24.7297 72.375L24.6881 72.361Z" fill="#252932"/>
<path d="M20.2154 60.039C20.1323 61.2795 20.0631 62.4086 19.9662 63.5237C19.7308 66.3115 21.5031 68.7787 24.2586 69.3502C24.7293 69.4478 25.2694 69.0993 25.7817 69.0435C26.3494 68.9878 26.9171 69.0157 27.4848 69.0017C27.2217 69.7126 27.1663 70.6604 26.6678 71.0786C25.2278 72.3052 23.5939 71.8871 22.1539 70.981C19.3292 69.2108 17.3353 66.9666 18.1384 63.2171C18.3877 62.0741 18.5677 60.8475 18.4292 59.7045C18.3323 58.8403 17.9031 57.6694 17.2523 57.3209C16.643 56.9864 15.5353 57.4882 14.6768 57.7391C14.2753 57.8645 13.9291 58.2409 13.6384 58.5754C13.2507 59.0215 12.9322 59.5372 12.5861 60.0251C13.0707 60.2899 13.6107 60.5129 14.0399 60.8475C14.3861 61.1123 14.8568 61.5444 14.843 61.8929C14.8291 62.2553 14.303 62.8825 13.9984 62.8686C13.223 62.8686 12.0322 62.8268 11.7691 62.3528C11.1875 61.3074 10.6891 59.9554 10.8275 58.8124C11.0629 57.0143 14.6353 54.7004 16.4907 54.7562C18.2907 54.8119 19.6062 55.941 19.9523 57.8088C20.0908 58.5754 20.1323 59.3699 20.1877 60.039H20.2154Z" fill="#252932"/>
<path d="M7.29724 70.5768C7.18647 70.5768 7.07568 70.5768 6.97875 70.535C3.29561 69.5593 0.678669 66.4927 0.470973 62.9383C0.415587 62.088 0.637127 61.2656 0.900208 60.3178C1.01098 59.9275 1.12172 59.4954 1.21865 59.0354C-0.692155 55.6622 -0.359812 52.9441 2.24331 50.24C3.08794 49.3618 4.66641 48.8461 6.46644 48.8461C8.43263 48.8461 10.108 49.4594 10.925 50.4769C11.2711 50.8951 11.285 51.4805 11.3127 51.9963C11.3127 52.1914 11.3265 52.3866 11.3542 52.5538C11.3819 52.7071 11.3265 52.8744 11.2296 52.9859C11.1327 53.0974 10.9942 53.1532 10.8419 53.1532H10.8142C10.6619 53.1532 10.5096 53.1532 10.3573 53.1393C9.99727 53.1393 9.62344 53.1253 9.24958 53.0417C8.79265 52.9441 8.33572 52.8187 7.90648 52.6793C7.17262 52.4562 6.49412 52.2611 5.84334 52.2611C5.76026 52.2611 5.66333 52.2611 5.58025 52.2611C3.94638 52.4144 3.25408 53.8362 2.96331 55.0071C2.68638 56.0804 3.19869 56.5543 4.1264 57.307C4.29256 57.4464 4.45873 57.5858 4.62489 57.7252C5.01259 58.0737 5.37257 58.4639 5.71873 58.8263C5.87104 58.9936 6.00951 59.1469 6.16182 59.3142C6.27259 59.4257 6.31414 59.579 6.30029 59.7323C6.28645 59.8857 6.20335 60.0251 6.06489 60.1087C5.89873 60.2202 5.73259 60.3317 5.56644 60.4572C5.17874 60.736 4.79103 61.0147 4.34795 61.2238C3.73871 61.5165 3.28175 62.0741 3.15714 62.6735C3.0879 62.9941 3.08793 63.468 3.44794 63.914C4.15411 64.7782 5.1095 65.5031 6.03721 66.214C6.2726 66.3952 6.52182 66.5763 6.75721 66.7576C6.90952 66.883 7.13108 66.9667 7.38031 67.0782C7.72647 67.2315 8.12802 67.3848 8.41879 67.7193C8.7511 68.0818 8.86185 68.5836 8.95878 69.0296C9.00032 69.1969 9.02803 69.3502 9.06957 69.5035C9.11111 69.6429 9.09727 69.7963 9.02804 69.9217C8.9588 70.0472 8.83416 70.1447 8.69569 70.1726C8.55723 70.2144 8.41877 70.2562 8.26646 70.312C7.94799 70.4235 7.62954 70.5489 7.28338 70.5489L7.29724 70.5768Z" fill="#252932"/>
<path d="M1.77276 58.9517C-0.0965067 55.7458 0.0835184 53.2368 2.61741 50.6163C4.27898 48.9018 9.02828 48.9576 10.5237 50.8114C10.856 51.2296 10.7452 52.0241 10.8422 52.6374C10.3437 52.6095 9.83136 52.6375 9.34674 52.5399C8.05902 52.289 6.75749 51.6478 5.52516 51.7593C3.86359 51.9126 2.8805 53.2089 2.45126 54.8955C2.02202 56.6239 3.2959 57.2652 4.27899 58.1433C4.819 58.6172 5.28978 59.1748 5.78825 59.7045C5.23439 60.0669 4.72207 60.499 4.14052 60.7917C2.78357 61.4608 2.1051 63.1334 3.0605 64.2904C4.00206 65.4334 5.2759 66.2976 6.45285 67.2175C6.92362 67.5939 7.65747 67.6775 8.04517 68.1096C8.39133 68.486 8.41905 69.155 8.5852 69.6987C8.08673 69.8241 7.54673 70.1586 7.11749 70.0471C3.71127 69.1411 1.19121 66.2836 0.997362 62.9243C0.92813 61.7813 1.44044 60.5965 1.77276 58.9657V58.9517Z" fill="#252932"/>
<path d="M102.976 26.2651C102.782 26.2651 102.616 26.2094 102.477 26.1118C102.089 25.8051 101.619 25.0524 101.785 24.453C102.006 23.6864 102.38 22.9476 102.851 22.3622C104.194 20.7035 104.762 19.3375 104.582 18.1805C104.374 16.8703 103.211 15.6158 100.802 14.0965C100.442 13.8595 100.068 13.748 99.6802 13.748C99.154 13.748 98.5725 13.9571 97.9217 14.3892C97.2709 14.8213 96.8278 15.0025 96.4401 15.0025C95.3878 15.0025 95.194 13.7619 95.097 13.0929C95.0417 12.7026 94.7232 12.2147 94.5293 12.1311C93.7124 11.7826 92.8539 11.476 92.0231 11.1972C91.317 10.9602 90.5969 10.7093 89.8908 10.4166C89.4615 10.2354 89.1431 9.90083 88.8523 9.59418C88.7415 9.46873 88.6308 9.35722 88.52 9.24571C88.4092 9.14813 88.34 8.99484 88.3538 8.84151C88.3538 8.68818 88.4231 8.54879 88.5477 8.45122C88.6584 8.35365 88.7831 8.22817 88.8938 8.11666C89.2261 7.76819 89.6 7.36398 90.0985 7.35004C90.1954 7.35004 90.3062 7.35004 90.4031 7.35004C93.0201 7.35004 95.1386 8.59061 97.4509 10.11C97.9355 10.4305 98.4478 10.6117 98.8355 10.6117C99.0155 10.6117 99.1402 10.6117 99.251 10.6117C101.328 10.6117 103.419 11.5317 104.997 13.1486C106.576 14.7655 107.462 16.9121 107.434 19.0448C107.393 21.8883 105.689 23.9234 104.194 25.7354C103.931 26.056 103.349 26.2651 102.962 26.2651H102.976Z" fill="#252932"/>
<path d="M106.922 19.0309C106.88 21.6514 105.343 23.5331 103.806 25.387C103.613 25.6239 102.976 25.8191 102.796 25.6797C102.505 25.4567 102.2 24.8852 102.283 24.5785C102.477 23.9094 102.81 23.2265 103.253 22.6828C106.548 18.6406 105.316 16.3267 101.079 13.6504C99.9156 12.9117 98.7525 13.2183 97.6448 13.9571C96.274 14.877 95.8725 14.6262 95.6232 13.0232C95.5401 12.5214 95.1663 11.8384 94.7371 11.6572C93.2278 11.002 91.6078 10.556 90.0847 9.94267C89.6139 9.74752 89.2678 9.2318 88.8662 8.86939C89.2816 8.52091 89.6831 7.89367 90.1124 7.87974C92.8124 7.78216 95.0002 9.13424 97.1602 10.5421C97.6725 10.8766 98.3371 11.1554 98.9187 11.1275C103.1 10.9184 106.977 14.7098 106.908 19.0169L106.922 19.0309Z" fill="#252932"/>
<path d="M45.3059 13.1486C45.209 13.1486 45.1121 13.1207 45.029 13.065C44.9044 12.9953 44.8213 12.8698 44.7936 12.7304C44.7659 12.5771 44.7106 12.4099 44.6413 12.2426C44.4475 11.6572 44.2675 11.0996 44.6413 10.7511L45.3475 10.096C46.9675 8.59059 48.6429 7.02944 50.5399 5.8307C50.7337 5.70525 50.9553 5.64948 51.2184 5.64948C51.7861 5.64948 52.4368 5.92827 53.143 6.22098C53.4338 6.34643 53.7384 6.47188 54.0153 6.56946C54.2092 6.37431 54.4169 6.15127 54.6246 5.94219C55.3031 5.23131 56.0092 4.49254 56.8677 3.93498C57.6154 3.44712 59.097 2.6108 60.5924 2.59686C63.3616 2.59686 67.2802 5.80281 67.9863 8.60452C68.111 9.07845 67.9587 9.55238 67.8202 9.97055C67.7648 10.1239 67.7233 10.2911 67.6817 10.4445C67.6402 10.6117 67.5294 10.7511 67.3771 10.8208C67.3079 10.8487 67.2387 10.8626 67.1833 10.8626C67.0863 10.8626 66.9894 10.8347 66.9063 10.779C66.7817 10.6954 66.6433 10.6257 66.4909 10.556C66.1032 10.3608 65.6601 10.1239 65.4247 9.70571C64.497 8.00516 62.9601 6.76458 60.7308 5.94219C60.6893 5.92825 60.5924 5.90037 60.4539 5.90037C59.9693 5.90037 59.2631 6.16525 58.8892 6.49978C57.8369 7.39187 56.7846 8.53483 55.6631 9.99841C55.3584 10.4026 54.8738 10.9184 54.1953 10.9184C53.6138 10.9184 53.1292 10.5281 52.7415 10.1378C52.0353 9.4548 51.6061 9.16207 51.2599 9.16207C50.9138 9.16207 50.4845 9.41299 49.7783 10.0542C49.3906 10.4027 49.0168 10.765 48.6291 11.1275C48.0891 11.6432 47.5214 12.1868 46.926 12.6886C46.5937 12.9674 46.1783 13.0231 45.8044 13.0789C45.666 13.0928 45.5413 13.1207 45.4167 13.1486C45.3752 13.1486 45.3337 13.1626 45.2921 13.1626L45.3059 13.1486Z" fill="#252932"/>
<path d="M54.1809 7.15488C55.1225 6.24885 56.0225 5.11983 57.1717 4.35319C58.1825 3.68412 59.4564 3.11264 60.6195 3.0987C63.2088 3.07082 66.8642 6.17919 67.5011 8.71607C67.6258 9.18999 67.3073 9.77542 67.1965 10.319C66.7534 10.0263 66.1165 9.84509 65.895 9.42692C64.7873 7.37791 62.9734 6.17916 60.9241 5.41252C60.2872 5.17555 59.1518 5.56585 58.5702 6.06765C57.3379 7.11306 56.2579 8.35366 55.2609 9.63604C54.4855 10.6396 53.9178 10.5281 53.1148 9.73358C51.6193 8.25606 50.9824 8.25609 49.4455 9.63604C48.4901 10.4863 47.6039 11.4341 46.6208 12.2565C46.3023 12.5214 45.7623 12.5074 45.3192 12.6189C45.2085 12.1032 44.8346 11.3087 45.0285 11.1414C46.8977 9.42694 48.7393 7.61488 50.8578 6.26281C51.4947 5.85858 52.9901 6.79247 54.1948 7.15488H54.1809Z" fill="#252932"/>
<path d="M105.316 54.9513C103.086 54.9513 101.646 53.4459 100.386 52.1217C100.206 51.9266 100.026 51.7454 99.8324 51.5502C98.4616 50.1703 98.2678 48.3582 99.2924 46.5601C99.8047 45.668 100.4 44.8038 101.051 43.9954C101.826 43.0336 101.923 42.476 101.868 42.1833C101.826 41.9324 101.632 41.7093 101.3 41.5281C101.051 41.3888 100.691 41.3191 100.22 41.3191C99.6662 41.3191 99.057 41.4167 98.4616 41.5142L98.0739 41.57C97.9077 41.5978 97.617 41.9184 97.4508 42.1136C97.4231 42.1554 97.3816 42.1972 97.3539 42.2251C97.3954 42.3924 97.4231 42.5457 97.4647 42.699C97.617 43.3402 97.7416 43.8978 97.7693 44.4693C97.7693 44.6087 97.7001 44.7898 97.6031 44.8874C97.3677 45.1383 96.6062 45.4171 96.2462 45.4171C96.0108 45.4171 95.8585 45.3195 95.7754 45.2359L95.5954 45.0686C94.9723 44.4693 94.28 43.8002 94.1 42.9638C93.8923 41.9742 94.1969 40.9288 94.9307 39.9809C96.0108 38.6149 97.8662 37.695 99.6524 37.6392H99.8601C102.048 37.6392 103.529 38.5871 104.402 40.5524C105.274 42.5318 104.997 44.302 103.599 45.8074C103.46 45.9468 103.349 46.1141 103.225 46.2674L103.1 46.4207C102.214 47.5916 101.882 48.5813 102.103 49.3618C102.339 50.1703 103.169 50.8533 104.609 51.3969C104.72 51.4387 104.9 51.4527 105.066 51.4527C105.246 51.4527 105.44 51.4666 105.62 51.5084C106.008 51.592 106.396 51.7036 106.783 51.8011L107.254 51.9266C107.406 51.9684 107.531 52.0799 107.6 52.2332C107.669 52.3866 107.656 52.5538 107.573 52.6932L107.365 53.0695C107.088 53.5853 106.811 54.0871 106.52 54.5889C106.368 54.8538 106.077 54.8816 105.994 54.8816C105.745 54.9095 105.509 54.9234 105.288 54.9234L105.316 54.9513Z" fill="#252932"/>
<path d="M96.8007 42.0578C97.0084 43.0754 97.23 43.7723 97.2577 44.4832C97.2577 44.6087 96.3023 44.985 96.1638 44.8596C95.5546 44.2741 94.793 43.6051 94.6407 42.8524C94.1699 40.5943 96.8976 38.2386 99.6946 38.1689C101.716 38.1131 103.129 38.9077 103.945 40.7615C104.693 42.4621 104.541 44.0371 103.239 45.445C103.045 45.6541 102.893 45.8771 102.713 46.1001C100.692 48.7485 101.273 50.686 104.444 51.8987C104.776 52.0241 105.178 51.9684 105.538 52.0381C106.078 52.1496 106.604 52.3169 107.144 52.4562C106.798 53.0835 106.452 53.7247 106.092 54.352C106.078 54.3798 105.981 54.3798 105.925 54.3938C103.239 54.7422 101.785 52.8047 100.193 51.2017C98.9469 49.9472 98.8638 48.3861 99.7362 46.8389C100.235 45.9607 100.816 45.1244 101.453 44.3438C102.353 43.2287 102.99 41.8906 101.55 41.0682C100.636 40.5524 99.1823 40.8731 98.0054 41.0403C97.5069 41.124 97.0915 41.8069 96.8007 42.0578Z" fill="#252932"/>
<path d="M27.541 54.3659C27.541 54.3659 27.4302 54.3659 27.3748 54.338C27.181 54.2683 26.9872 54.2265 26.7795 54.1708C26.2671 54.0453 25.6717 53.9059 25.2702 53.5017L25.0348 53.2787C23.4009 51.6618 21.864 50.1424 19.6763 49.4455C18.8732 49.1946 18.3747 48.1492 18.1531 47.5498C17.8485 46.7413 19.5793 45.8911 19.5932 45.8771C21.4901 44.9572 21.8086 44.3438 21.4901 42.1554C21.4209 41.7094 21.3793 40.9009 21.7809 40.4549L22.0994 40.0925C23.1794 38.8798 24.3009 37.6392 25.5748 36.5938C26.1563 36.1199 26.7241 35.8829 27.2502 35.8829C27.7072 35.8829 28.8149 36.092 29.2026 37.9738C29.4795 39.3258 29.5349 40.7337 29.5764 42.0579C29.5764 42.49 29.2995 42.8106 29.0502 43.0894C28.9672 43.173 28.8979 43.2566 28.8287 43.3542C28.7318 43.4796 28.5933 43.5632 28.441 43.5772C28.441 43.5772 28.4133 43.5772 28.3995 43.5772C28.261 43.5772 28.1226 43.5214 28.0256 43.4099C27.9564 43.3263 27.8594 43.2566 27.7764 43.173C27.4994 42.936 27.181 42.6712 27.0979 42.253C26.9456 41.5421 26.8625 40.8312 26.7795 40.0088C26.7795 39.967 26.7795 39.9252 26.7795 39.8834C25.5887 40.9427 24.8271 41.9185 24.5225 43.2845C24.2871 44.3438 24.0378 45.4171 23.844 46.1977L23.7332 46.6716C24.0656 47.0759 24.3979 47.4801 24.7163 47.8704C25.7133 49.0691 26.641 50.2121 27.5133 51.4248C27.8595 51.8987 27.9149 52.4981 27.9841 53.0696C28.0118 53.2926 28.0256 53.5017 28.081 53.7108C28.1225 53.892 28.0533 54.0871 27.9148 54.2126C27.8179 54.2962 27.6933 54.338 27.5687 54.338L27.541 54.3659Z" fill="#252932"/>
<path d="M27.1669 38.8659C25.5745 40.1482 24.3976 41.347 23.996 43.1869C23.6776 44.6226 23.3314 46.0583 23.1514 46.811C24.5222 48.4976 25.8791 50.0728 27.0838 51.7454C27.4715 52.2751 27.4161 53.1254 27.5546 53.8363C26.9038 53.6132 26.0869 53.5714 25.6438 53.1254C23.913 51.4248 22.2652 49.7103 19.8421 48.9437C19.316 48.7764 18.8729 47.968 18.6513 47.3547C18.5821 47.1874 19.3575 46.5741 19.8283 46.3371C21.9329 45.3196 22.3622 44.4833 22.016 42.0718C21.9606 41.6537 21.9468 41.0543 22.1822 40.7894C23.373 39.4652 24.5499 38.0992 25.9069 36.9841C27.25 35.883 28.3576 36.3429 28.7038 38.0574C28.9669 39.3537 29.0223 40.7058 29.0638 42.044C29.0638 42.3646 28.6346 42.6991 28.413 43.0197C28.1361 42.7269 27.6792 42.4621 27.6099 42.1136C27.4022 41.1519 27.333 40.1482 27.1807 38.838L27.1669 38.8659Z" fill="#252932"/>
<path d="M89.3368 168.4C89.1568 168.4 88.9907 168.316 88.8937 168.163L88.3676 167.327C87.9937 166.727 87.606 166.114 87.2183 165.529C86.886 165.027 86.5399 164.539 86.1245 163.954L86.0691 165.055C86.0691 165.222 85.9583 165.389 85.8198 165.473C85.7368 165.529 85.6398 165.543 85.5568 165.543C85.4875 165.543 85.4044 165.529 85.3352 165.501C85.1552 165.417 84.989 165.347 84.8506 165.278C84.5321 165.138 84.269 165.027 84.006 164.874C83.4521 164.539 82.9259 164.19 82.3998 163.842C81.2505 163.075 80.1705 162.337 78.8551 161.877C77.872 161.528 77.1243 160.692 76.3904 159.869C76.3212 159.786 76.2381 159.702 76.1689 159.619V159.702C76.1412 159.842 76.0581 159.967 75.9473 160.051C75.8643 160.12 75.7535 160.148 75.6427 160.148C75.615 160.148 75.5735 160.148 75.5458 160.148C72.9288 159.66 71.9735 157.751 71.1288 156.064C70.8381 155.479 70.575 154.935 70.2426 154.433C70.1042 154.238 70.1319 153.973 70.2842 153.792L70.6442 153.388C70.7411 153.276 70.8934 153.221 71.0319 153.221C71.1427 153.221 71.2534 153.262 71.3503 153.332L73.1089 154.712C73.3996 154.601 73.7042 154.545 74.0089 154.545C74.9227 154.545 75.6843 155.074 76.3489 155.548C76.6674 155.771 76.9582 155.98 77.2628 156.134C77.5812 156.287 77.8582 156.482 78.1212 156.677C78.5366 156.97 78.9382 157.249 79.492 157.388C80.5443 157.653 81.4582 158.294 82.4967 159.047C82.9121 159.354 83.3552 159.66 83.826 159.967C83.8952 159.967 83.9783 159.967 84.0475 159.967C86.8029 159.967 89.7384 162.95 89.8491 167.94C89.8491 168.177 89.6968 168.386 89.4753 168.456C89.4199 168.47 89.3784 168.484 89.323 168.484L89.3368 168.4Z" fill="#252932"/>
<path d="M89.3371 167.87C88.7694 166.978 88.2294 166.086 87.6479 165.222C87.1079 164.4 86.5263 163.605 85.6817 162.406C85.6263 163.535 85.5847 164.163 85.5432 165.013C85.0032 164.762 84.6155 164.623 84.2555 164.413C82.5247 163.382 81.0154 162.072 79.0216 161.375C77.7754 160.929 76.8892 159.507 75.8092 158.475C75.7676 158.726 75.7123 159.117 75.643 159.605C72.4584 159.005 72.043 156.162 70.686 154.113L71.046 153.708C71.6968 154.224 72.3614 154.74 73.0399 155.27C74.6738 154.433 75.7676 155.911 77.0277 156.538C77.8169 156.928 78.3431 157.569 79.3677 157.82C80.78 158.169 81.9847 159.34 83.6878 160.413C86.014 160.134 89.1987 162.727 89.3233 167.856L89.3371 167.87Z" fill="#252932"/>
<path d="M40.5146 168.651C40.5146 168.651 40.4039 168.651 40.3485 168.623C40.1546 168.553 40.0162 168.372 39.9885 168.163C39.6977 164.734 41.5393 161.863 44.7932 160.678C44.8486 160.664 44.9178 160.65 44.9732 160.65C45.0563 160.65 45.1255 160.664 45.1947 160.706C45.3193 160.762 45.4163 160.873 45.4578 161.012L45.5409 161.263C45.6932 161.096 45.8317 160.915 45.984 160.748C46.4825 160.148 47.0086 159.521 47.7009 159.131C48.9056 158.448 50.1933 157.918 51.5502 157.346C52.1318 157.11 52.7271 156.859 53.3502 156.58C53.4195 156.552 53.4887 156.538 53.558 156.538C53.6687 156.538 53.7657 156.566 53.8626 156.636C54.0149 156.747 54.0979 156.914 54.0841 157.11L54.0426 157.709C54.1256 157.57 54.2226 157.444 54.3056 157.305C54.9564 156.287 55.7041 155.13 57.3934 155.13H57.5595C57.8365 155.144 58.058 155.381 58.058 155.66V159.479C58.058 159.688 57.9334 159.869 57.7534 159.953C57.6842 159.981 57.6149 159.995 57.5457 159.995C57.4211 159.995 57.2965 159.953 57.1995 159.869L56.7842 159.493C55.6764 161.138 54.001 161.612 52.3671 162.086C51.2317 162.406 50.1517 162.727 49.2656 163.41C49.1686 163.48 49.0579 163.521 48.9471 163.521C48.9194 163.521 48.9056 163.521 48.8779 163.521C48.7394 163.507 48.6148 163.424 48.5317 163.312L48.2271 162.908C48.0748 163.048 47.9224 163.201 47.7701 163.34C47.0363 164.037 46.2747 164.748 45.4578 165.361C45.1947 165.556 44.8901 165.57 44.6962 165.57C44.5578 165.57 44.4193 165.57 44.267 165.543C44.1424 165.543 44.0316 165.515 43.907 165.515C43.7824 165.515 43.727 165.529 43.6855 165.543C43.1178 165.766 42.5778 166.142 42.2039 166.574C41.9824 166.825 41.8023 167.118 41.6223 167.438C41.4146 167.787 41.1931 168.163 40.8885 168.498C40.7915 168.609 40.6392 168.679 40.5008 168.679L40.5146 168.651Z" fill="#252932"/>
<path d="M53.5852 157.054C53.516 157.89 53.4744 158.42 53.419 159.172C54.9698 158.085 55.1498 155.52 57.5591 155.632V159.451C57.2268 159.158 57.0053 158.963 56.6729 158.657C55.0668 161.821 51.4113 161.096 48.9744 162.964C48.6143 162.49 48.3513 162.127 48.3236 162.1C47.2574 163.075 46.2882 164.079 45.1666 164.901C44.7927 165.18 44.0035 164.832 43.5189 165.027C42.8958 165.278 42.2727 165.696 41.8296 166.198C41.3311 166.769 41.0403 167.522 40.5142 168.121C40.2511 164.901 42.0096 162.253 44.9866 161.166C45.0974 161.5 45.222 161.835 45.3604 162.225C45.5266 162.058 45.6373 161.932 45.7481 161.821C46.482 161.054 47.1051 160.065 47.9912 159.563C49.6805 158.615 51.5359 157.946 53.599 157.04L53.5852 157.054Z" fill="#252932"/>
<path d="M87.1632 43.6051C87.1632 43.6051 87.0663 43.6051 87.0248 43.5912C86.8724 43.5494 86.7478 43.4379 86.6786 43.2845C86.6232 43.1591 86.5401 43.0197 86.457 42.8803C86.2217 42.4621 85.9448 41.9882 86.0971 41.5143C86.6509 39.7719 87.3432 37.5974 88.2848 35.646C88.9633 34.2382 89.7525 32.8861 90.5141 31.5619C90.9987 30.7116 91.4971 29.8753 91.9541 29.0111C92.6187 27.7845 92.0372 26.5997 91.331 25.4009C91.2618 25.2755 90.7633 25.0246 90.3617 25.0246C90.2925 25.0246 90.251 25.0246 90.251 25.0246C89.6694 25.2336 89.1294 25.5821 88.5617 25.9585C88.2017 26.1954 87.8556 26.4185 87.4817 26.6136C87.1355 26.8088 86.7617 26.9063 86.4017 27.0039C86.2632 27.0457 86.1109 27.0875 85.9725 27.1293C85.9171 27.1433 85.8617 27.1572 85.8201 27.1572C85.7232 27.1572 85.6263 27.1293 85.5432 27.0736C85.4186 26.9899 85.3217 26.8506 85.3078 26.6972C85.294 26.53 85.2524 26.3627 85.2109 26.1954C85.1001 25.7215 84.9755 25.1918 85.1832 24.7319C86.0971 22.6828 87.9663 22.2229 89.4617 21.8604C89.711 21.8047 89.9602 21.735 90.1817 21.6792C90.2233 21.6792 90.2648 21.6653 90.3063 21.6653H90.4448C92.7433 21.6653 94.128 23.0313 94.6818 25.8609C95.2218 28.5929 94.848 30.9347 93.5464 33.0534C93.1725 33.6667 92.771 34.2661 92.3833 34.8794C90.8048 37.3187 89.3094 39.6186 88.7002 42.4203C88.6032 42.8803 88.174 43.1173 87.8001 43.3263C87.6755 43.396 87.5648 43.4657 87.454 43.5354C87.3709 43.6051 87.2601 43.633 87.1494 43.633L87.1632 43.6051Z" fill="#252932"/>
<path d="M90.3342 22.1671C92.5081 22.1113 93.685 23.3379 94.1835 25.9306C94.6543 28.3141 94.4327 30.6001 93.1173 32.7328C91.2342 35.7714 88.9911 38.6289 88.2018 42.267C88.1326 42.5875 87.5234 42.7966 87.1634 43.0615C86.9695 42.5876 86.4849 42.03 86.6095 41.6536C87.2326 39.6883 87.8834 37.709 88.7696 35.8551C89.8634 33.5831 91.2342 31.4643 92.425 29.2341C93.2281 27.7427 92.5219 26.3487 91.7881 25.1082C91.5388 24.69 90.5419 24.3415 90.0849 24.5088C89.0741 24.8712 88.2018 25.61 87.2326 26.1397C86.8033 26.3766 86.291 26.4603 85.8064 26.6136C85.7372 26.0421 85.4326 25.373 85.6403 24.927C86.5957 22.7804 88.7141 22.5992 90.3065 22.1531L90.3342 22.1671Z" fill="#252932"/>
<path d="M113.223 61.2796C112.904 61.2796 112.586 61.2238 112.281 61.1681C112.101 61.1402 111.935 61.0984 111.755 61.0844C111.589 61.0705 111.436 60.9729 111.353 60.8196C111.27 60.6663 111.256 60.499 111.326 60.3457C111.409 60.1645 111.478 59.9694 111.533 59.7603C111.713 59.2445 111.907 58.6591 112.35 58.2967C112.821 57.9064 113.361 57.6555 113.887 57.4046C114.33 57.1955 114.746 57.0004 115.092 56.7355C115.923 56.1222 116.324 55.4253 116.255 54.7841C116.172 54.129 115.618 53.5435 114.663 53.1532C113.984 52.8605 113.569 52.4702 113.43 51.9545C113.292 51.4388 113.444 50.8533 113.901 50.24C115.729 47.731 114.926 44.5251 113.403 42.6015C113.195 42.3367 112.766 42.1694 112.309 41.9882C111.949 41.8488 111.589 41.7094 111.256 41.4864C110.882 41.2494 110.619 40.9149 110.356 40.5803C110.259 40.4549 110.162 40.3294 110.052 40.2179C109.955 40.1064 109.899 39.9671 109.913 39.8137C109.927 39.6604 110.01 39.5349 110.121 39.4373C110.246 39.3398 110.37 39.2283 110.495 39.1168C110.841 38.7822 111.243 38.4059 111.755 38.4059C113.084 38.4059 114.94 38.6289 115.743 40.4967C116.366 41.9603 116.906 43.4797 117.432 44.9572C117.653 45.5984 117.889 46.2396 118.124 46.8668C118.221 47.1316 118.096 47.4383 117.833 47.5358L117.695 47.5916C117.681 47.7728 117.667 47.968 117.64 48.1492C117.349 49.9055 117.57 51.1739 118.415 52.4981C119.163 53.669 119.384 54.9932 119.066 56.3174C118.692 57.8367 117.612 59.2167 116.089 60.1088C115.341 60.5409 114.566 61.0008 113.721 61.2238C113.555 61.2657 113.389 61.2796 113.209 61.2796H113.223Z" fill="#252932"/>
<path d="M117.238 47.2292C117.21 47.508 117.196 47.7868 117.155 48.0655C116.878 49.7382 116.988 51.1879 117.999 52.7769C119.536 55.2162 118.442 58.1434 115.853 59.6488C115.133 60.0669 114.399 60.499 113.61 60.7081C113.07 60.8475 112.419 60.6245 111.824 60.5548C112.101 59.9276 112.225 59.0912 112.71 58.7009C113.499 58.0458 114.607 57.767 115.438 57.1537C117.473 55.6483 117.238 53.6411 114.898 52.6515C113.638 52.1218 113.79 51.2994 114.344 50.5328C116.421 47.7032 115.368 44.1906 113.832 42.253C113.347 41.6397 112.295 41.5004 111.561 41.0404C111.118 40.7616 110.827 40.2598 110.467 39.8556C110.91 39.535 111.339 38.9216 111.782 38.9216C113.195 38.9216 114.662 39.2144 115.285 40.6919C116.172 42.7688 116.878 44.9154 117.667 47.0341C117.515 47.0898 117.376 47.1456 117.224 47.2153L117.238 47.2292Z" fill="#252932"/>
<path d="M9.81765 80.3759C9.55456 80.3759 9.33302 80.348 9.12533 80.2643C8.073 79.9159 6.81296 79.3862 6.34219 78.4523C5.81602 77.3929 5.94065 76.013 6.09296 74.8003C6.16219 74.2428 6.78528 74.1312 7.64375 73.9779C7.87914 73.9361 8.12835 73.8943 8.30835 73.8385C8.34989 73.8385 8.39144 73.8246 8.44682 73.8246C8.5576 73.8246 8.65452 73.8525 8.75145 73.9222C8.87606 74.0058 8.95915 74.1452 8.97299 74.2985L9.19454 76.5845C9.19454 76.6821 9.19454 76.7657 9.153 76.8493C9.153 76.8493 9.16684 76.8493 9.18068 76.8493C9.54069 76.8772 9.87302 76.919 10.1915 76.919C10.4823 76.919 10.7315 76.8911 10.9392 76.8354C11.0915 76.6263 11.2853 75.8596 11.23 75.4136C11.0223 73.8524 11.1746 72.8349 11.7146 72.2077C12.13 71.7198 12.7669 71.4828 13.6392 71.4828C14.1238 71.4828 14.6916 71.5525 15.4393 71.6919C17.447 72.0822 19.3855 72.8906 21.2547 73.6712C21.9055 73.9361 22.5563 74.2149 23.2209 74.4658C23.761 74.6748 24.4533 75.1209 24.7717 75.7342C25.0071 76.1663 25.0071 76.682 25.0071 77.1281C25.0071 77.2954 25.0071 77.4626 25.021 77.616C25.021 77.7693 24.9794 77.9226 24.8687 78.0341C24.7717 78.1317 24.6333 78.1875 24.4948 78.1875C24.4809 78.1875 24.4671 78.1875 24.4533 78.1875C24.3009 78.1875 24.1625 78.1735 24.0102 78.1735C23.6364 78.1735 23.221 78.1735 22.8333 78.0202C20.3409 77.1002 17.6824 76.0827 14.7192 74.9258C14.4562 74.8142 14.29 74.8003 14.1931 74.8003C14.0961 74.8003 13.8884 74.8003 13.8884 75.6227C13.8884 75.8597 13.93 76.0966 13.9577 76.3615C13.9992 76.6124 14.0269 76.8632 14.0408 77.1141C14.11 78.9122 13.1961 79.9856 11.4792 80.1528C11.2715 80.1668 11.0638 80.2086 10.8561 80.2504C10.51 80.3061 10.1638 80.3759 9.81765 80.3759Z" fill="#252932"/>
<path d="M8.25258 77.3233C9.22183 77.3512 10.2464 77.6021 11.1188 77.3233C11.4926 77.2118 11.7972 75.9991 11.7003 75.344C11.2434 72.0126 12.5727 71.692 15.3004 72.2217C17.9451 72.7374 20.4512 73.978 22.999 74.9676C23.4975 75.1628 24.0375 75.5391 24.2867 75.9991C24.5359 76.473 24.439 77.1142 24.4944 77.6857C23.9959 77.6439 23.4559 77.7136 22.999 77.5463C20.2851 76.5427 17.585 75.5113 14.8988 74.4519C13.6942 73.978 13.3619 74.6052 13.3619 75.6228C13.3619 76.1246 13.5003 76.6263 13.5142 77.1281C13.5696 78.5917 12.9326 79.4838 11.4234 79.6232C10.7034 79.6929 9.90027 79.9717 9.26334 79.7626C8.33563 79.456 7.15872 78.9681 6.78487 78.2154C6.31409 77.2815 6.45253 75.9852 6.591 74.8701C6.61869 74.6192 7.7818 74.5216 8.41873 74.3404C8.48796 75.107 8.5572 75.8597 8.64028 76.6264C8.50181 76.8494 8.37718 77.0724 8.23872 77.3094L8.25258 77.3233Z" fill="#252932"/>
<path d="M67.0997 190.159C66.9889 190.159 66.892 190.131 66.7951 190.061C66.3797 189.768 65.9782 189.517 65.5905 189.267C64.7458 188.723 63.9427 188.207 63.292 187.524C62.5581 186.744 61.9765 185.81 61.4088 184.918C61.1734 184.541 60.9242 184.151 60.675 183.789C60.5227 183.579 60.5642 183.287 60.7442 183.106C61.395 182.492 62.0319 182.2 62.6965 182.2C63.4581 182.2 64.095 182.604 64.6627 182.966C64.8289 183.078 64.995 183.175 65.1612 183.273L65.5489 181.67C65.5905 181.489 65.7428 181.335 65.9228 181.294L66.3797 181.168C66.3797 181.168 66.4766 181.154 66.5181 181.154C66.7397 181.154 66.9335 181.294 67.0028 181.503L67.8059 183.775L70.2152 182.562C70.2844 182.52 70.3674 182.506 70.4505 182.506C70.6028 182.506 70.7552 182.576 70.8521 182.701L71.2675 183.231C71.4198 183.426 71.4198 183.705 71.2675 183.886C70.7136 184.555 70.4367 185.433 70.1459 186.353C69.6751 187.831 69.1351 189.517 67.2105 190.117C67.1551 190.131 67.1136 190.145 67.0582 190.145L67.0997 190.159Z" fill="#252932"/>
<path d="M61.1182 183.51C63.0428 181.698 64.1367 183.607 65.5352 184.026C65.7013 183.329 65.8952 182.576 66.0752 181.823C66.2275 181.781 66.3798 181.74 66.5459 181.698C66.9198 182.757 67.2936 183.83 67.5429 184.541C68.3598 184.123 69.426 183.593 70.4922 183.05C70.6306 183.231 70.7691 183.412 70.9076 183.579C69.3152 185.517 69.7999 188.807 67.0998 189.643C65.7983 188.723 64.5659 188.11 63.6798 187.176C62.669 186.102 61.9628 184.75 61.1182 183.51Z" fill="#252932"/>
<path d="M18.5821 102.037C18.4713 102.037 18.3605 101.995 18.2636 101.925L17.8206 101.577C17.6129 101.41 17.5575 101.103 17.7098 100.866C18.0282 100.392 18.3467 99.9043 18.6652 99.4164C19.3575 98.357 20.0775 97.2559 20.8529 96.2105C22.8468 93.5203 24.5776 91.3179 26.2668 89.2968C26.6684 88.8229 27.2361 88.572 27.7761 88.335C27.9976 88.2374 28.2053 88.1398 28.413 88.0283C28.4961 87.9865 28.5792 87.9586 28.6623 87.9586C28.7453 87.9586 28.8146 87.9726 28.8838 88.0144C29.0361 88.0841 29.1469 88.2374 29.1746 88.4047L29.2854 89.0459C29.3685 89.5477 29.4515 90.0495 29.5346 90.5373L30.7808 89.924C30.85 89.8822 30.9331 89.8683 31.0023 89.8683C31.1269 89.8683 31.2516 89.9101 31.3623 90.0076C31.5146 90.161 31.57 90.384 31.5008 90.5791C30.3931 93.4505 29.8392 94.6075 28.7869 94.6075C28.3576 94.6075 27.9561 94.3984 27.4438 94.0081L18.9698 101.842C18.8729 101.939 18.7482 101.981 18.6236 101.981L18.5821 102.037Z" fill="#252932"/>
<path d="M31.002 90.4258C29.4235 94.5239 29.0773 94.7329 27.3881 93.3669C24.4249 96.0989 21.5034 98.8031 18.5818 101.507C18.4295 101.396 18.291 101.27 18.1387 101.159C19.1772 99.6115 20.1464 98.0225 21.268 96.5311C23.0126 94.1893 24.7849 91.8755 26.6542 89.6453C27.1111 89.0877 27.9696 88.8786 28.6481 88.5023C28.7727 89.241 28.8973 89.9658 29.0081 90.7046C29.0358 90.8719 29.0081 91.0391 29.0081 91.3876C29.645 91.081 30.1851 90.8161 30.9743 90.4258H31.002Z" fill="#252932"/>
<path d="M76.4463 35.2278C76.3355 35.2278 76.2386 35.1999 76.1417 35.1302C76.017 35.0326 75.8647 34.949 75.7262 34.8654C75.3385 34.6423 74.8955 34.3914 74.6739 33.9454C74.037 32.6909 73.4693 31.4085 72.9708 30.2655C72.8047 29.8753 72.6385 29.5128 72.4862 29.1644C72.4446 29.0668 72.4308 28.9692 72.4446 28.8717C72.8462 26.293 73.2339 23.8676 75.657 22.7386C76.0586 22.5573 76.557 22.5295 76.834 22.5295C77.1524 22.5295 78.2048 22.5713 78.6063 23.1567C78.8832 23.5749 78.9802 23.9652 78.8694 24.3415C78.6894 24.9827 78.0109 25.2754 77.4017 25.5402L77.2355 25.61C75.8232 26.2372 75.1585 28.0911 75.7816 29.6522C75.9478 30.0843 76.1832 30.5025 76.4186 30.9346C76.7232 31.4922 77.0416 32.0637 77.2355 32.7049C77.4016 33.2206 77.2355 33.7642 77.0832 34.2521C77.0278 34.4333 76.9724 34.6145 76.9309 34.7817C76.9032 34.9629 76.7786 35.1023 76.6124 35.172C76.557 35.1999 76.4878 35.2138 76.4186 35.2138L76.4463 35.2278Z" fill="#252932"/>
<path d="M72.9707 28.9693C73.3861 26.3348 73.7599 24.23 75.8923 23.2264C76.5292 22.9337 77.9 23.0313 78.1908 23.4634C78.8554 24.4391 77.8585 24.7876 77.0415 25.15C75.3661 25.9027 74.5907 28.0353 75.3246 29.8613C75.74 30.8928 76.4323 31.8267 76.7785 32.8861C76.9446 33.4018 76.5846 34.0988 76.4738 34.6981C76.0308 34.3775 75.38 34.1545 75.1584 33.7085C74.2999 32.0358 73.5799 30.2795 72.9984 28.9693H72.9707Z" fill="#252932"/>
<path d="M101.744 91.6664C101.633 91.6664 101.536 91.6385 101.453 91.5688C99.6394 90.3004 96.6624 79.3862 97.0778 76.6402C97.1055 76.4311 97.2717 76.2499 97.4794 76.2081C97.5209 76.2081 97.5625 76.2081 97.5901 76.2081C97.7563 76.2081 97.9225 76.2918 98.0194 76.4312C100.595 80.2225 101.232 84.446 101.924 88.9204C102.035 89.6313 102.146 90.3422 102.256 91.053C102.284 91.2621 102.201 91.4712 102.021 91.5827C101.938 91.6385 101.841 91.6664 101.744 91.6664Z" fill="#252932"/>
<path d="M97.5895 76.7238C100.497 81.017 100.899 86.035 101.743 91.1366C100.234 90.0773 97.1603 79.5674 97.5895 76.7238Z" fill="#252932"/>
<path d="M45.5416 60.0251C45.0985 60.0251 44.4893 59.7602 44.2539 59.342C42.9385 56.9585 41.6646 54.6168 40.5015 52.1914C40.2661 51.7036 40.5016 51.146 40.7093 50.6163C40.7785 50.4351 40.8615 50.2539 40.9031 50.0866C40.9446 49.9054 41.0831 49.78 41.2631 49.7242C41.3185 49.7103 41.36 49.6964 41.4154 49.6964C41.54 49.6964 41.6646 49.7382 41.7616 49.8357C41.8862 49.9473 42.0108 50.0448 42.1354 50.1424C42.4677 50.3933 42.8277 50.6721 43.0631 51.0763C43.8524 52.4562 44.6001 53.878 45.3062 55.258L45.7493 56.1222C45.9986 56.5961 46.2201 57.084 46.4693 57.5858L46.8017 58.2688C46.8847 58.436 46.8709 58.6312 46.7739 58.7845C46.7047 58.896 46.6355 59.0215 46.5801 59.1469C46.4001 59.4954 46.2201 59.8578 45.8324 59.9833C45.7493 60.0111 45.6524 60.0251 45.5416 60.0251Z" fill="#252932"/>
<path d="M46.3436 58.5057C46.0805 58.91 45.9421 59.3978 45.679 59.4814C45.4159 59.5651 44.8621 59.3421 44.7236 59.0912C43.422 56.7494 42.1343 54.3937 40.9851 51.9823C40.7912 51.5641 41.2481 50.8393 41.4143 50.2539C41.8158 50.6163 42.3558 50.909 42.6189 51.369C43.5605 53.0138 44.4328 54.7143 45.3051 56.387C45.6651 57.07 45.9836 57.767 46.3436 58.5197V58.5057Z" fill="#252932"/>
<path d="M54.7348 55.1604C54.5825 55.1604 54.4302 55.0907 54.3333 54.9653C54.2502 54.8677 54.1533 54.7702 54.0563 54.6726C53.7379 54.3799 53.3917 54.0453 53.3779 53.5714C53.3363 51.0485 53.3779 48.5952 53.5025 46.3092C53.5302 45.8214 53.9041 45.4729 54.2502 45.1523C54.361 45.0408 54.4717 44.9432 54.5687 44.8317C54.6656 44.7202 54.8179 44.6505 54.9702 44.6505C54.9841 44.6505 54.9979 44.6505 55.0117 44.6505C55.1779 44.6645 55.3302 44.762 55.4133 44.9014C55.4825 45.0129 55.5518 45.1384 55.6349 45.2499C55.8425 45.5565 56.0502 45.8911 56.161 46.2674C56.2718 46.6159 56.2302 46.9783 56.1887 47.2849C56.1887 47.3965 56.161 47.508 56.161 47.6195C56.161 47.7868 56.0641 47.9261 55.9533 48.0237V49.1249C55.9533 50.5467 55.9672 52.0242 55.9256 53.4878C55.9118 53.9199 55.6487 54.2683 55.4133 54.575C55.3302 54.6726 55.261 54.7841 55.1918 54.8817C55.1087 55.021 54.9564 55.1186 54.7902 55.1325C54.7902 55.1325 54.7625 55.1325 54.7487 55.1325L54.7348 55.1604Z" fill="#252932"/>
<path d="M55.4131 47.6334C55.4131 49.5849 55.4546 51.5502 55.3854 53.5017C55.3854 53.892 54.9561 54.2683 54.7346 54.6447C54.4438 54.2962 53.9039 53.9478 53.9039 53.5854C53.8762 51.1739 53.9039 48.7625 54.0285 46.365C54.0562 45.9608 54.6377 45.5844 54.97 45.2081C55.2192 45.6262 55.5377 46.0165 55.6762 46.4626C55.787 46.811 55.6762 47.2431 55.6485 47.6334C55.5792 47.6334 55.51 47.6334 55.4269 47.6334H55.4131Z" fill="#252932"/>
<path d="M101.55 69.5314C101.162 69.5314 100.262 69.169 100.248 68.5836C100.234 67.6218 100.248 66.7994 100.788 66.4509C101.633 65.9073 102.547 65.4891 103.516 65.057C103.89 64.8898 104.263 64.7225 104.651 64.5413C104.72 64.5134 104.804 64.4855 104.873 64.4855C104.984 64.4855 105.094 64.5274 105.191 64.5971C105.302 64.6807 105.427 64.7643 105.565 64.834C105.939 65.071 106.34 65.3079 106.451 65.754C106.59 66.3394 106.313 67.3012 105.773 67.6079C104.388 68.4024 102.948 69.0157 101.84 69.4757C101.757 69.5175 101.66 69.5314 101.563 69.5314H101.55Z" fill="#252932"/>
<path d="M104.873 65.0152C105.274 65.3219 105.842 65.5449 105.925 65.8794C106.022 66.2558 105.8 66.9806 105.496 67.1478C104.263 67.8587 102.948 68.4442 101.633 68.9878C101.425 69.0714 100.774 68.723 100.76 68.5696C100.76 67.9981 100.733 67.106 101.065 66.897C102.2 66.1721 103.488 65.6703 104.873 65.0152Z" fill="#252932"/>
<path d="M84.6434 57.7391C84.5188 57.7391 84.3942 57.6973 84.2972 57.6136C84.1865 57.5161 84.0619 57.4324 83.9373 57.3488C83.5634 57.084 83.1341 56.7912 83.0372 56.3034C82.8711 55.4392 83.7296 54.115 84.1034 53.5853C84.4911 53.0417 85.488 51.7454 86.3881 51.6199C86.4157 51.6199 86.485 51.6199 86.5127 51.6199C86.9281 51.6199 87.2742 51.8848 87.6758 52.1914C87.8558 52.3308 88.0635 52.4841 88.2989 52.6374C88.4235 52.7211 88.5065 52.8465 88.5342 52.9999C88.5619 53.1532 88.5204 53.3065 88.4235 53.418L85.0588 57.5718C84.9757 57.6833 84.8373 57.7531 84.6988 57.767C84.6849 57.767 84.6711 57.767 84.6573 57.767L84.6434 57.7391Z" fill="#252932"/>
<path d="M88.0082 53.0556C86.7205 54.6447 85.682 55.927 84.6436 57.2094C84.2559 56.8749 83.6189 56.5822 83.5497 56.1919C83.3559 55.1883 85.4466 52.2751 86.4574 52.1357C86.8451 52.0799 87.3021 52.6235 88.0221 53.0696L88.0082 53.0556Z" fill="#252932"/>
<path d="M35.6687 156.329C35.6687 156.329 35.5995 156.329 35.558 156.329C35.4057 156.301 35.281 156.204 35.2118 156.078L35.6687 155.813L35.1979 156.036L34.3671 154.559C34.2979 154.433 34.2841 154.266 34.3256 154.127C34.4225 153.848 34.5056 153.583 34.5887 153.318C34.7825 152.691 34.9625 152.105 35.2672 151.562C35.5025 151.158 35.918 150.921 36.278 150.725C36.4164 150.656 36.541 150.586 36.6657 150.503C36.7487 150.447 36.8595 150.419 36.9564 150.419C36.998 150.419 37.0534 150.419 37.0949 150.433C37.2472 150.475 37.358 150.572 37.4272 150.712C37.4826 150.851 37.5657 150.976 37.6487 151.116C37.8703 151.492 38.1195 151.91 38.1057 152.384C38.0642 153.318 37.8426 154.252 37.4687 155.005C37.2472 155.451 36.8041 155.73 36.4026 155.967C36.2641 156.05 36.1118 156.134 35.9872 156.231C35.8903 156.301 35.7933 156.329 35.6826 156.329H35.6687Z" fill="#252932"/>
<path d="M34.8102 154.28C35.1287 153.36 35.3087 152.524 35.6964 151.813C35.9179 151.408 36.5134 151.213 36.9287 150.935C37.1503 151.408 37.5795 151.896 37.5518 152.37C37.5103 153.193 37.3303 154.043 36.9703 154.782C36.7487 155.228 36.0979 155.479 35.6549 155.813C35.3779 155.311 35.101 154.824 34.7964 154.294L34.8102 154.28Z" fill="#252932"/>
<path d="M94.0728 62.1159C93.9205 62.1159 93.6989 62.0323 93.602 61.9069C93.5189 61.7954 93.4081 61.6699 93.2974 61.5305C92.7435 60.8614 92.4389 60.499 92.7712 60.0948C93.5466 59.1609 94.4328 58.2688 95.3882 57.4325C95.4851 57.3488 95.6236 57.307 95.7482 57.307C96.0113 57.307 96.2051 57.4604 96.7867 57.9343C97.0082 58.1155 97.2575 58.3245 97.5205 58.5197C97.6452 58.6173 97.7282 58.7706 97.7282 58.9239C97.7282 59.0773 97.6728 59.2306 97.5482 59.3421L96.9805 59.8299C96.039 60.6384 95.2774 61.3075 94.4882 61.9626C94.3359 62.088 94.1559 62.1159 94.0451 62.1159H94.0728Z" fill="#252932"/>
<path d="M97.2293 58.9518C96.0247 59.9832 95.1109 60.7778 94.1832 61.5723C94.1555 61.6002 94.0447 61.6002 94.017 61.5723C93.7124 61.182 93.117 60.5129 93.1862 60.4293C93.9616 59.4954 94.8339 58.6312 95.7478 57.8367C95.8309 57.767 96.4816 58.3803 97.2293 58.9379V58.9518Z" fill="#252932"/>
<path d="M64.5108 53.2925C64.0124 53.2925 63.2785 52.735 63.2231 52.1914C63.14 51.2575 63.0708 50.1563 63.2508 49.0691C63.3339 48.5812 63.7631 48.2885 64.1508 48.0376C64.2754 47.954 64.4001 47.8703 64.5108 47.7867C64.6078 47.7031 64.7185 47.6613 64.8431 47.6613C64.857 47.6613 64.8847 47.6613 64.8985 47.6613C65.037 47.6752 65.1754 47.7588 65.2585 47.8703L65.8955 48.7485C65.9647 48.8461 66.0062 48.9715 65.9924 49.097C65.9647 49.4594 65.937 49.78 65.9232 50.1006C65.8816 50.8533 65.8401 51.4944 65.7155 52.1356C65.6324 52.6374 65.0647 53.2647 64.5247 53.2925C64.5247 53.2925 64.497 53.2925 64.4831 53.2925H64.5108Z" fill="#252932"/>
<path d="M65.4798 49.0691C65.3829 50.2818 65.369 51.1878 65.2167 52.052C65.1613 52.3448 64.7737 52.7629 64.5106 52.7769C64.2475 52.7769 63.749 52.4005 63.7352 52.1496C63.6521 51.16 63.5967 50.1424 63.7629 49.1667C63.8183 48.7903 64.469 48.5255 64.8429 48.2049C65.106 48.5673 65.3829 48.9437 65.4798 49.0831V49.0691Z" fill="#252932"/>
<path d="M75.5048 55.1883C75.4079 55.1883 75.311 55.1883 75.214 55.1883C75.131 55.1883 75.0479 55.1883 74.9648 55.1883C74.9648 55.1883 74.8402 55.1883 74.8263 55.1883C74.7017 55.1883 74.5771 55.1465 74.4802 55.0489C74.3694 54.9513 74.314 54.812 74.314 54.6726C74.314 54.4774 74.2863 54.2683 74.2725 54.0593C74.2171 53.5156 74.1617 52.9581 74.3417 52.4144C74.5217 51.8708 74.8679 51.4387 75.311 50.8812C75.5187 50.6164 75.7402 50.3236 75.9894 49.9891C76.0864 49.8497 76.2525 49.7661 76.4187 49.7661C76.4464 49.7661 76.4602 49.7661 76.4879 49.7661C76.6818 49.7939 76.8341 49.9194 76.9033 50.1006C77.0279 50.4212 77.1525 50.686 77.2633 50.923C77.5126 51.4527 77.7202 51.8708 77.5956 52.3169C77.3879 53.0835 77.0002 53.892 76.3633 54.8398C76.1279 55.1883 75.6848 55.1883 75.491 55.1883H75.5048Z" fill="#252932"/>
<path d="M76.4184 50.2957C76.7784 51.2296 77.2077 51.7872 77.1107 52.1914C76.8892 53.0278 76.4461 53.8362 75.9615 54.561C75.8369 54.7562 75.2415 54.6447 74.8538 54.6586C74.8399 53.9617 74.6461 53.209 74.8538 52.5817C75.0753 51.8987 75.6707 51.3411 76.4323 50.2957H76.4184Z" fill="#252932"/>
<path d="M59.2349 160.176C59.0411 160.176 58.8611 160.037 58.7918 159.855C57.8503 157.542 58.9441 156.357 61.4503 154.865C61.5334 154.81 61.6303 154.796 61.7134 154.796C61.8519 154.796 61.9765 154.851 62.0734 154.949C62.2396 155.116 62.2811 155.381 62.1565 155.576L59.7195 159.925C59.6226 160.092 59.4565 160.19 59.2626 160.19H59.2349V160.176Z" fill="#252932"/>
<path d="M61.7137 155.311C60.9106 156.733 60.1075 158.169 59.2767 159.66C58.5567 157.876 59.0552 156.9 61.7137 155.311Z" fill="#252932"/>
</svg>
